<?xml version="1.0" encoding="utf-8"?>
<!-- Generator: Adobe Illustrator 23.0.1, SVG Export Plug-In . SVG Version: 6.00 Build 0)  -->
<svg version="1.1" id="Layer_1" xmlns="http://www.w3.org/2000/svg" xmlns:xlink="http://www.w3.org/1999/xlink" x="0px" y="0px"
	 width="120px" height="100px" viewBox="0 0 120 100" style="enable-background:new 0 0 120 100;" xml:space="preserve">
<style type="text/css">
	.st0{fill:#FFFFFF;}
</style>
<path id="XMLID_457_" class="st0" d="M16.6,31.8c-1.1,1.8-2.1,3.7-2.9,5.7l10.1,11.7l0,0l0,0L13.7,60.8c0.8,2,1.7,3.9,2.8,5.7
	l15.2-17.3l0,0l0,0l-15-17.4L16.6,31.8z"/>
<g>
	<path class="st0" d="M72.3,8.1c-12.9,0-24.5,6-32,15.4l3.3,3.9c6.6-8.6,17-14.2,28.7-14.2c19.9,0,36.1,16.2,36.1,36.1
		s-16.2,36-36.1,36c-11.7,0-22.1-5.6-28.7-14.2L40.2,75c7.5,9.4,19.1,15.4,32,15.4c22.7,0,41.1-18.4,41.1-41.1S94.9,8.1,72.3,8.1z"
		/>
</g>
<polygon class="st0" points="20,49.2 12.8,40.6 7.3,40.6 7.3,57.7 12.7,57.7 20,49.2 "/>
</svg>
