<?xml version="1.0" encoding="utf-8"?>
<!-- Generator: Adobe Illustrator 23.0.1, SVG Export Plug-In . SVG Version: 6.00 Build 0)  -->
<svg version="1.1" id="Layer_1" xmlns="http://www.w3.org/2000/svg" xmlns:xlink="http://www.w3.org/1999/xlink" x="0px" y="0px"
	 width="80px" height="80px" viewBox="0 0 80 80" style="enable-background:new 0 0 80 80;" xml:space="preserve">
<style type="text/css">
	.st0{fill-rule:evenodd;clip-rule:evenodd;fill:#A9824E;}
	.st1{fill:#A9824E;}
</style>
<path class="st0" d="M23.1,43.6c0.7-11.4,10.8-20.5,22.2-20s20.2,10.1,19.4,21.5c-0.7,11.4-10.8,20.5-22.2,20
	C31,64.8,22.2,55.1,23.1,43.6 M16.1,43.3C15.5,51,18.2,58,22.8,63.2s11.5,8.5,19.1,8.8s14.8-2.6,20.1-7.4l0,0
	c5.3-4.8,8.9-11.6,9.4-19.3c0.5-7.6-2.1-14.7-6.8-19.9l0,0c-4.7-5.2-11.5-8.5-19.1-8.8C30.4,16,17.1,28,16.1,43.3z"/>
<path class="st0" d="M40.4,40.6c1.5-1.3,3.5-1.7,5.2-1.1L30.9,30l7.9,15.4C38.5,43.7,39,41.8,40.4,40.6z"/>
<path class="st0" d="M47.3,48.2c-1.4,1.3-3.3,1.6-5,1.2l14.6,9.5L49,43.3C49.3,44.9,48.8,46.9,47.3,48.2z"/>
<g>
	<path class="st1" d="M20.8,16.6c0.5,0.6,0.7,1.4,0.7,2.3c0,1.1-0.3,2.1-1,3c-0.6,0.8-1.6,1.5-2.7,2c-1.2,0.5-2.5,0.7-4,0.7H5.2
		L8.7,7.3h8.2c1.8,0,3.1,0.3,4.1,1s1.5,1.6,1.5,2.7c0,1-0.4,1.9-1.1,2.7s-1.6,1.4-2.7,1.6C19.6,15.6,20.3,16,20.8,16.6z M16,20.5
		c0.5-0.4,0.8-0.9,0.8-1.6c0-0.5-0.2-0.8-0.6-1.1c-0.4-0.3-0.9-0.4-1.6-0.4h-3.5L10.4,21h3.5C14.8,21.1,15.5,20.9,16,20.5z M17,13.6
		c0.4-0.4,0.7-0.9,0.7-1.5c0-0.4-0.1-0.8-0.4-1s-0.7-0.3-1.3-0.3h-3.5l-0.7,3.4h3.5C16,14.2,16.6,14,17,13.6z"/>
</g>
</svg>
