<?xml version="1.0" encoding="utf-8"?>
<!-- Generator: Adobe Illustrator 23.0.1, SVG Export Plug-In . SVG Version: 6.00 Build 0)  -->
<svg version="1.1" id="Layer_1" xmlns="http://www.w3.org/2000/svg" xmlns:xlink="http://www.w3.org/1999/xlink" x="0px" y="0px"
	 width="60px" height="60px" viewBox="0 0 60 60" enable-background="new 0 0 60 60" xml:space="preserve">
<linearGradient id="SVGID_1_" gradientUnits="userSpaceOnUse" x1="4.0808" y1="51.171" x2="62.5898" y2="46.7217" gradientTransform="matrix(1 0 0 -1 0 62)">
	<stop  offset="0" style="stop-color:#B48447"/>
	<stop  offset="0.5" style="stop-color:#DAB871"/>
	<stop  offset="1" style="stop-color:#F1E9C5"/>
</linearGradient>
<path fill="url(#SVGID_1_)" d="M51.4,15.1H8.6c-1.3,0-2.3-1-2.3-2.3l0,0c0-1.3,1-2.3,2.3-2.3h42.8c1.3,0,2.3,1,2.3,2.3l0,0
	C53.7,14.1,52.7,15.1,51.4,15.1z"/>
<linearGradient id="SVGID_2_" gradientUnits="userSpaceOnUse" x1="2.7804" y1="34.0699" x2="61.2894" y2="29.6206" gradientTransform="matrix(1 0 0 -1 0 62)">
	<stop  offset="0" style="stop-color:#B48447"/>
	<stop  offset="0.5" style="stop-color:#DAB871"/>
	<stop  offset="1" style="stop-color:#F1E9C5"/>
</linearGradient>
<path fill="url(#SVGID_2_)" d="M50.8,32.3H9.2c-1.6,0-2.9-1-2.9-2.3l0,0c0-1.3,1.3-2.3,2.9-2.3h41.6c1.6,0,2.9,1,2.9,2.3l0,0
	C53.7,31.3,52.4,32.3,50.8,32.3z"/>
<linearGradient id="SVGID_3_" gradientUnits="userSpaceOnUse" x1="1.4799" y1="16.9688" x2="59.9889" y2="12.5195" gradientTransform="matrix(1 0 0 -1 0 62)">
	<stop  offset="0" style="stop-color:#B48447"/>
	<stop  offset="0.5" style="stop-color:#DAB871"/>
	<stop  offset="1" style="stop-color:#F1E9C5"/>
</linearGradient>
<path fill="url(#SVGID_3_)" d="M50.8,49.5H9.2c-1.6,0-2.9-1-2.9-2.3l0,0c0-1.3,1.3-2.3,2.9-2.3h41.6c1.6,0,2.9,1,2.9,2.3l0,0
	C53.7,48.5,52.4,49.5,50.8,49.5z"/>
</svg>
