<?xml version="1.0" encoding="utf-8"?>
<!-- Generator: Adobe Illustrator 23.0.1, SVG Export Plug-In . SVG Version: 6.00 Build 0)  -->
<svg version="1.1" id="Layer_1" xmlns="http://www.w3.org/2000/svg" xmlns:xlink="http://www.w3.org/1999/xlink" x="0px" y="0px"
	 width="60px" height="60px" viewBox="0 0 60 60" enable-background="new 0 0 60 60" xml:space="preserve">
<g>
	<g>
		
			<linearGradient id="SVGID_1_" gradientUnits="userSpaceOnUse" x1="5.065" y1="1467.8833" x2="47.2007" y2="1467.8833" gradientTransform="matrix(1 0 0 1 0 -1438)">
			<stop  offset="0" style="stop-color:#B48447"/>
			<stop  offset="0.5" style="stop-color:#DAB871"/>
			<stop  offset="1" style="stop-color:#F1E9C5"/>
		</linearGradient>
		<path fill="url(#SVGID_1_)" d="M25.3,56.2c3.9,0.6,7.5,0.5,11.1-0.5c1.7-0.5,2.8-2.3,2.2-4.1l0,0c-0.2-0.3-0.6-0.6-0.9-0.5
			c-4,1.5-8.2,1.9-12.7,0.9C15.5,49.8,8.3,41.7,7.4,32C6.1,18.5,16.7,7.1,30,7.1c12.5,0,22.8,10.1,22.8,22.8c0,0.5,0,0.9,0,1.4
			l0.9,0.9c1.1,1.1,3,0.5,3.1-1.1c0.2-4.1-0.5-8.3-2.6-12.6C49.8,9.6,40.9,3.4,30.9,3.2C14.2,2.9,1.3,16.9,3.3,33.5
			C4.9,45,13.9,54.2,25.3,56.2z"/>
	</g>
	<g>
		
			<linearGradient id="SVGID_2_" gradientUnits="userSpaceOnUse" x1="5.065" y1="1477.85" x2="47.2007" y2="1477.85" gradientTransform="matrix(1 0 0 1 0 -1438)">
			<stop  offset="0" style="stop-color:#B48447"/>
			<stop  offset="0.5" style="stop-color:#DAB871"/>
			<stop  offset="1" style="stop-color:#F1E9C5"/>
		</linearGradient>
		<polygon fill="url(#SVGID_2_)" points="19.2,33.9 22.8,45.8 23.5,35.8 		"/>
		
			<linearGradient id="SVGID_3_" gradientUnits="userSpaceOnUse" x1="5.065" y1="1479.05" x2="47.2007" y2="1479.05" gradientTransform="matrix(1 0 0 1 0 -1438)">
			<stop  offset="0" style="stop-color:#B48447"/>
			<stop  offset="0.5" style="stop-color:#DAB871"/>
			<stop  offset="1" style="stop-color:#F1E9C5"/>
		</linearGradient>
		<polygon fill="url(#SVGID_3_)" points="23.1,45.8 25.5,36.3 31.3,38.6 		"/>
		
			<linearGradient id="SVGID_4_" gradientUnits="userSpaceOnUse" x1="5.065" y1="1463.1" x2="47.2007" y2="1463.1" gradientTransform="matrix(1 0 0 1 0 -1438)">
			<stop  offset="0" style="stop-color:#B48447"/>
			<stop  offset="0.5" style="stop-color:#DAB871"/>
			<stop  offset="1" style="stop-color:#F1E9C5"/>
		</linearGradient>
		<path fill="url(#SVGID_4_)" d="M42.6,15.5L11.1,30.2l12.7,4.5l0,0L42.6,15.5L42.6,15.5z"/>
		
			<linearGradient id="SVGID_5_" gradientUnits="userSpaceOnUse" x1="5.065" y1="1466.5" x2="47.2007" y2="1466.5" gradientTransform="matrix(1 0 0 1 0 -1438)">
			<stop  offset="0" style="stop-color:#B48447"/>
			<stop  offset="0.5" style="stop-color:#DAB871"/>
			<stop  offset="1" style="stop-color:#F1E9C5"/>
		</linearGradient>
		<polygon fill="url(#SVGID_5_)" points="25.9,35.5 41.6,41.4 42.9,15.6 		"/>
	</g>
</g>
</svg>
