<?xml version="1.0" encoding="utf-8"?>
<!-- Generator: Adobe Illustrator 23.0.1, SVG Export Plug-In . SVG Version: 6.00 Build 0)  -->
<svg version="1.1" id="Layer_1" xmlns="http://www.w3.org/2000/svg" xmlns:xlink="http://www.w3.org/1999/xlink" x="0px" y="0px"
	 width="60px" height="60px" viewBox="0 0 60 60" enable-background="new 0 0 60 60" xml:space="preserve">
<g>
	
		<linearGradient id="SVGID_1_" gradientUnits="userSpaceOnUse" x1="15.72" y1="44.3201" x2="55.4178" y2="2.7615" gradientTransform="matrix(1 0 0 -1 0 62)">
		<stop  offset="0" style="stop-color:#B48447"/>
		<stop  offset="0.5" style="stop-color:#DAB871"/>
		<stop  offset="1" style="stop-color:#F1E9C5"/>
	</linearGradient>
	<path fill="url(#SVGID_1_)" d="M42.2,34L42.2,34c0,0-4.8-2.6-6.9-4.2c-0.6-0.6-1.9-0.6-2.2-0.6c-1.1,0-1.7,0.8-1.7,0.8l0,0
		c0,0-0.5,0.5-1.2,1.1c-0.9,0.8-2,0.8-3-0.3c-1.4-1.1-8.1-9-10.3-11.5c-0.5-0.6-0.8-1.1-0.8-1.7c0.2-1.1,1.4-1.9,1.9-2.3l0.2-0.2
		c1.4-0.9,1.6-2.5,1.1-3.6c-0.5-0.6-3.1-6.4-3.4-7c-0.6-0.5-1.1-1.2-2.5-1.2c-0.9,0-5,1.7-5,1.7C7,5.9,4.7,7.6,4.8,11.2
		C5,15.6,8.4,22,15.7,30.7c7.5,9.5,16.2,13.7,20,13.6c3.1-0.2,6.2-4.2,7-6.2C43.6,36,42.9,34.6,42.2,34z"/>
	<g>
		
			<linearGradient id="SVGID_2_" gradientUnits="userSpaceOnUse" x1="17.6074" y1="46.123" x2="57.3052" y2="4.5644" gradientTransform="matrix(1 0 0 -1 0 62)">
			<stop  offset="0" style="stop-color:#B48447"/>
			<stop  offset="0.5" style="stop-color:#DAB871"/>
			<stop  offset="1" style="stop-color:#F1E9C5"/>
		</linearGradient>
		<path fill="url(#SVGID_2_)" d="M35.6,3.6C31.7,3,28.1,3.1,24.5,4.1c-1.7,0.5-2.8,2.3-2.2,4.1l0,0c0.2,0.3,0.6,0.6,0.9,0.5
			c3.9-1.4,8.1-1.7,12.6-0.8c9.5,2.2,16.7,10.3,17.6,20c1.2,13.6-9.4,24.9-22.6,24.9C18.3,52.8,8,42.7,8,30c0-0.5,0-0.9,0-1.4
			l-0.9-0.9c-1.1-1.1-3-0.5-3.1,1.1c0,3.9,0.6,8.2,2.8,12.5C11.1,50.2,20,56.4,30,56.6c16.7,0.3,29.6-13.7,27.6-30.2
			C56,14.8,47,5.6,35.6,3.6z"/>
	</g>
</g>
</svg>
