<?xml version="1.0" encoding="utf-8"?>
<!-- Generator: Adobe Illustrator 23.0.1, SVG Export Plug-In . SVG Version: 6.00 Build 0)  -->
<svg version="1.1" id="Layer_1" xmlns="http://www.w3.org/2000/svg" xmlns:xlink="http://www.w3.org/1999/xlink" x="0px" y="0px"
	 width="200px" height="80px" viewBox="0 0 200 80" style="enable-background:new 0 0 200 80;" xml:space="preserve">
<style type="text/css">
	.st0{fill:url(#SVGID_1_);}
	.st1{fill:url(#SVGID_2_);}
	.st2{fill:url(#SVGID_3_);}
	.st3{fill:url(#SVGID_4_);}
	.st4{fill:url(#SVGID_5_);}
	.st5{fill:url(#SVGID_6_);}
	.st6{fill:url(#SVGID_7_);}
	.st7{fill:url(#SVGID_8_);}
	.st8{fill:url(#SVGID_9_);}
	.st9{fill:url(#SVGID_10_);}
	.st10{fill:url(#SVGID_11_);}
	.st11{fill:url(#SVGID_12_);}
	.st12{fill:url(#SVGID_13_);}
	.st13{fill:url(#SVGID_14_);}
	.st14{fill:url(#SVGID_15_);}
	.st15{fill:url(#SVGID_16_);}
	.st16{fill:#FFFFFF;}
	.st17{fill:url(#SVGID_17_);}
	.st18{fill:url(#SVGID_18_);}
	.st19{fill:url(#SVGID_19_);}
	.st20{fill:url(#SVGID_20_);}
	.st21{fill:url(#SVGID_21_);}
	.st22{fill:url(#SVGID_22_);}
	.st23{fill:url(#SVGID_23_);}
	.st24{fill:url(#SVGID_24_);}
	.st25{fill:url(#SVGID_25_);}
	.st26{fill:url(#SVGID_26_);}
	.st27{fill:url(#SVGID_27_);}
	.st28{fill:url(#SVGID_28_);}
</style>
<g>
	<g>
		<g>
			<g>
				
					<linearGradient id="SVGID_1_" gradientUnits="userSpaceOnUse" x1="63.936" y1="-256.1391" x2="200.7583" y2="-190.3447" gradientTransform="matrix(1 0 0 -1 0 -198)">
					<stop  offset="0" style="stop-color:#B18044"/>
					<stop  offset="0.4403" style="stop-color:#DAB871"/>
					<stop  offset="1" style="stop-color:#F1E9C5"/>
				</linearGradient>
				<path class="st0" d="M37.9,78.8h0.9c8.8-20.2,28.2-34.6,51.2-36v-0.7C66.5,43.5,46.7,58.2,37.9,78.8z"/>
				
					<linearGradient id="SVGID_2_" gradientUnits="userSpaceOnUse" x1="64.8674" y1="-258.0762" x2="201.6897" y2="-192.2818" gradientTransform="matrix(1 0 0 -1 0 -198)">
					<stop  offset="0" style="stop-color:#B18044"/>
					<stop  offset="0.4403" style="stop-color:#DAB871"/>
					<stop  offset="1" style="stop-color:#F1E9C5"/>
				</linearGradient>
				<path class="st1" d="M41,78.8h1c8.4-18.5,26.6-31.6,47.9-32.9v-0.9C68.1,46.3,49.6,59.9,41,78.8z"/>
				
					<linearGradient id="SVGID_3_" gradientUnits="userSpaceOnUse" x1="65.8078" y1="-260.0316" x2="202.6301" y2="-194.2373" gradientTransform="matrix(1 0 0 -1 0 -198)">
					<stop  offset="0" style="stop-color:#B18044"/>
					<stop  offset="0.4403" style="stop-color:#DAB871"/>
					<stop  offset="1" style="stop-color:#F1E9C5"/>
				</linearGradient>
				<path class="st2" d="M44.2,78.8h1.2c8.2-16.8,25-28.5,44.5-29.9v-1.1C69.7,49.2,52.5,61.5,44.2,78.8z"/>
				
					<linearGradient id="SVGID_4_" gradientUnits="userSpaceOnUse" x1="66.7495" y1="-261.99" x2="203.5718" y2="-196.1957" gradientTransform="matrix(1 0 0 -1 0 -198)">
					<stop  offset="0" style="stop-color:#B18044"/>
					<stop  offset="0.4403" style="stop-color:#DAB871"/>
					<stop  offset="1" style="stop-color:#F1E9C5"/>
				</linearGradient>
				<path class="st3" d="M47.4,78.8h1.4c7.9-15,23.3-25.5,41.1-26.8v-1.2C71.3,52,55.5,63.1,47.4,78.8z"/>
				
					<linearGradient id="SVGID_5_" gradientUnits="userSpaceOnUse" x1="67.7063" y1="-263.9797" x2="204.5287" y2="-198.1854" gradientTransform="matrix(1 0 0 -1 0 -198)">
					<stop  offset="0" style="stop-color:#B18044"/>
					<stop  offset="0.4403" style="stop-color:#DAB871"/>
					<stop  offset="1" style="stop-color:#F1E9C5"/>
				</linearGradient>
				<path class="st4" d="M50.7,78.8h1.6C60,65.6,73.9,56.3,90,55v-1.4C73,54.9,58.5,64.7,50.7,78.8z"/>
				
					<linearGradient id="SVGID_6_" gradientUnits="userSpaceOnUse" x1="68.6539" y1="-265.9503" x2="205.4763" y2="-200.156" gradientTransform="matrix(1 0 0 -1 0 -198)">
					<stop  offset="0" style="stop-color:#B18044"/>
					<stop  offset="0.4403" style="stop-color:#DAB871"/>
					<stop  offset="1" style="stop-color:#F1E9C5"/>
				</linearGradient>
				<path class="st5" d="M54,78.8h1.8c7.3-11.5,19.7-19.5,34-20.7v-1.5C74.6,57.7,61.5,66.3,54,78.8z"/>
				
					<linearGradient id="SVGID_7_" gradientUnits="userSpaceOnUse" x1="69.6226" y1="-267.9647" x2="206.4449" y2="-202.1703" gradientTransform="matrix(1 0 0 -1 0 -198)">
					<stop  offset="0" style="stop-color:#B18044"/>
					<stop  offset="0.4403" style="stop-color:#DAB871"/>
					<stop  offset="1" style="stop-color:#F1E9C5"/>
				</linearGradient>
				<path class="st6" d="M57.5,78.8h2c6.8-9.8,17.8-16.5,30.4-17.7v-1.7C76.3,60.5,64.5,68,57.5,78.8z"/>
				
					<linearGradient id="SVGID_8_" gradientUnits="userSpaceOnUse" x1="70.5924" y1="-269.9813" x2="207.4147" y2="-204.187" gradientTransform="matrix(1 0 0 -1 0 -198)">
					<stop  offset="0" style="stop-color:#B18044"/>
					<stop  offset="0.4403" style="stop-color:#DAB871"/>
					<stop  offset="1" style="stop-color:#F1E9C5"/>
				</linearGradient>
				<path class="st7" d="M60.9,78.8h2.3c6.3-8.1,15.9-13.7,26.7-14.6v-1.8C77.9,63.3,67.6,69.6,60.9,78.8z"/>
				
					<linearGradient id="SVGID_9_" gradientUnits="userSpaceOnUse" x1="71.5851" y1="-272.0458" x2="208.4074" y2="-206.2515" gradientTransform="matrix(1 0 0 -1 0 -198)">
					<stop  offset="0" style="stop-color:#B18044"/>
					<stop  offset="0.4403" style="stop-color:#DAB871"/>
					<stop  offset="1" style="stop-color:#F1E9C5"/>
				</linearGradient>
				<path class="st8" d="M64.5,78.8h2.7c5.8-6.4,13.8-10.7,22.7-11.6v-2C79.6,66.2,70.7,71.2,64.5,78.8z"/>
				
					<linearGradient id="SVGID_10_" gradientUnits="userSpaceOnUse" x1="72.6812" y1="-274.3252" x2="209.5035" y2="-208.5309" gradientTransform="matrix(1 0 0 -1 0 -198)">
					<stop  offset="0" style="stop-color:#B18044"/>
					<stop  offset="0.4403" style="stop-color:#DAB871"/>
					<stop  offset="1" style="stop-color:#F1E9C5"/>
				</linearGradient>
				<path class="st9" d="M68.3,78.8h3.1c4.9-4.6,11.3-7.8,18.5-8.5V68C81.5,69,73.9,72.9,68.3,78.8z"/>
				
					<linearGradient id="SVGID_11_" gradientUnits="userSpaceOnUse" x1="73.8955" y1="-276.8504" x2="210.7178" y2="-211.0561" gradientTransform="matrix(1 0 0 -1 0 -198)">
					<stop  offset="0" style="stop-color:#B18044"/>
					<stop  offset="0.4403" style="stop-color:#DAB871"/>
					<stop  offset="1" style="stop-color:#F1E9C5"/>
				</linearGradient>
				<path class="st10" d="M72.5,78.8h3.7c3.9-2.9,8.6-4.8,13.8-5.5v-2.3C83.3,71.7,77.2,74.5,72.5,78.8z"/>
				
					<linearGradient id="SVGID_12_" gradientUnits="userSpaceOnUse" x1="75.1145" y1="-279.3853" x2="211.9369" y2="-213.591" gradientTransform="matrix(1 0 0 -1 0 -198)">
					<stop  offset="0" style="stop-color:#B18044"/>
					<stop  offset="0.4403" style="stop-color:#DAB871"/>
					<stop  offset="1" style="stop-color:#F1E9C5"/>
				</linearGradient>
				<path class="st11" d="M77.1,78.8H82c2.5-1.2,5.1-2,7.9-2.5v-2.6C85.2,74.4,80.8,76.2,77.1,78.8z"/>
				
					<linearGradient id="SVGID_13_" gradientUnits="userSpaceOnUse" x1="76.2138" y1="-281.6714" x2="213.0361" y2="-215.8771" gradientTransform="matrix(1 0 0 -1 0 -198)">
					<stop  offset="0" style="stop-color:#B18044"/>
					<stop  offset="0.4403" style="stop-color:#DAB871"/>
					<stop  offset="1" style="stop-color:#F1E9C5"/>
				</linearGradient>
				<path class="st12" d="M82.8,78.8h7v-2C87.4,77.1,85.1,77.8,82.8,78.8z"/>
			</g>
		</g>
		
			<linearGradient id="SVGID_14_" gradientUnits="userSpaceOnUse" x1="56.3613" y1="-240.3872" x2="193.1836" y2="-174.5928" gradientTransform="matrix(1 0 0 -1 0 -198)">
			<stop  offset="0" style="stop-color:#B18044"/>
			<stop  offset="0.4403" style="stop-color:#DAB871"/>
			<stop  offset="1" style="stop-color:#F1E9C5"/>
		</linearGradient>
		<path class="st13" d="M1,48.6v2.1l37,23.5c0-0.1,0.1-0.2,0.1-0.2L1,48.6z M1,48.6v2.1l37,23.5c0-0.1,0.1-0.2,0.1-0.2L1,48.6z
			 M1,48.6v2.1l37,23.5c0-0.1,0.1-0.2,0.1-0.2L1,48.6z M1,48.6v2.1l37,23.5c0-0.1,0.1-0.2,0.1-0.2L1,48.6z M1,48.6v2.1l37,23.5
			c0-0.1,0.1-0.2,0.1-0.2L1,48.6z M1,42.4v2l37.5,29.2c0-0.1,0.1-0.1,0.1-0.2L1,42.4z M1,50.8l37,23.5c0-0.1,0.1-0.2,0.1-0.2L1,48.6
			V50.8z M1,48.6v2.1l37,23.5c0-0.1,0.1-0.2,0.1-0.2L1,48.6z M1,48.6v2.1l37,23.5c0-0.1,0.1-0.2,0.1-0.2L1,48.6z M1,48.6v2.1
			l37,23.5c0-0.1,0.1-0.2,0.1-0.2L1,48.6z M1,48.6v2.1l37,23.5c0-0.1,0.1-0.2,0.1-0.2L1,48.6z M8.8,43.5c-0.6-0.1-1.3-0.2-2-0.4
			l31.9,29.9c0,0,0.1-0.1,0.1-0.2L8.8,43.5z M27.9,50.9c-0.6-0.4-1.3-0.7-1.9-1.2L39.8,71c0-0.1,0.1-0.2,0.2-0.3L27.9,50.9z
			 M33,54.4c-0.5-0.4-1.2-0.9-1.7-1.3l9.1,17.1c0.1-0.1,0.1-0.2,0.2-0.3L33,54.4z M37.2,57.8c-0.4-0.4-1-0.9-1.4-1.2L41,69.2
			c0.1-0.1,0.2-0.2,0.2-0.4L37.2,57.8z M40.3,60.9c-0.3-0.4-0.7-0.7-1.1-1.2l2.6,8.3c0.1-0.2,0.2-0.3,0.3-0.5L40.3,60.9z M1,71v2.7
			l35.4,4.1c0.1-0.1,0.1-0.3,0.2-0.4L1,71z M15.5,45.2c-0.6-0.2-1.4-0.4-2.1-0.6l25.7,27.9c0-0.1,0.1-0.1,0.1-0.2L15.5,45.2z
			 M21.9,47.7c-0.6-0.3-1.4-0.6-2-1l19.5,25c0-0.1,0.1-0.1,0.1-0.2L21.9,47.7z M1,54.7v2.2l36.7,18.1c0-0.1,0.1-0.2,0.1-0.3L1,54.7z
			 M1,60.3v2.3l36.3,13.1c0-0.1,0.1-0.2,0.2-0.3L1,60.3z M1,65.8v2.5l35.9,8.4c0.1-0.1,0.1-0.3,0.2-0.4L1,65.8z M42.6,63.4
			c-0.3-0.3-0.5-0.6-0.9-1l0.9,4.3c0.1-0.2,0.3-0.4,0.4-0.6L42.6,63.4z M1,76v2.8h35v-0.1c0.1-0.1,0.1-0.3,0.2-0.4L1,76z"/>
		<g>
			
				<linearGradient id="SVGID_15_" gradientUnits="userSpaceOnUse" x1="52.4509" y1="-232.2647" x2="189.2732" y2="-166.4703" gradientTransform="matrix(1 0 0 -1 0 -198)">
				<stop  offset="0" style="stop-color:#B18044"/>
				<stop  offset="0.4403" style="stop-color:#DAB871"/>
				<stop  offset="1" style="stop-color:#F1E9C5"/>
			</linearGradient>
			<path class="st14" d="M89.9,2.1v38.1c-8.1,0.5-15.8,2.6-22.7,5.9V34.4l-6.1,7.5l-12-14.5l18-22.1l2.6-3.2
				C69.7,2.1,89.9,2.1,89.9,2.1z"/>
			
				<linearGradient id="SVGID_16_" gradientUnits="userSpaceOnUse" x1="45.9169" y1="-218.6675" x2="182.7392" y2="-152.8732" gradientTransform="matrix(1 0 0 -1 0 -198)">
				<stop  offset="0" style="stop-color:#B18044"/>
				<stop  offset="0.4403" style="stop-color:#DAB871"/>
				<stop  offset="1" style="stop-color:#F1E9C5"/>
			</linearGradient>
			<path class="st15" d="M57.3,46.5L45.5,61.1L33.7,46.5l-9.9-12.1v11.7c-6.9-3.3-14.6-5.4-22.7-6V2.1h20.2l2.6,3.2l21.7,26.7
				L57.3,46.5z"/>
		</g>
	</g>
	<g>
		<g>
			<g>
				<polygon class="st16" points="104.3,22.2 108.4,22.2 108.4,3.3 114.5,3.3 114.5,2.1 98,2.1 98,3.3 104.3,3.3 				"/>
				<polygon class="st16" points="131.4,22.2 135.5,22.2 135.5,2.1 131.4,2.1 131.4,11.3 121.7,11.3 121.7,2.1 117.7,2.1 
					117.7,22.2 121.7,22.2 121.7,12.6 131.4,12.6 				"/>
				<polygon class="st16" points="154.3,20.9 143.6,20.9 143.6,12.6 151.8,12.6 151.8,11.3 143.6,11.3 143.6,3.3 154,3.3 154,2.1 
					139.5,2.1 139.5,22.2 154.3,22.2 				"/>
				<polygon class="st16" points="108.6,41 102.3,30.2 98,30.2 98,50.5 99.4,50.5 99.4,33.1 106.8,45.6 107.6,45.6 114.9,33.1 
					114.9,50.5 118.9,50.5 118.9,30.2 114.9,30.2 				"/>
				<path class="st16" d="M129.5,30.2l-8.9,20.3h1.6l2.5-5.5h8.9l2.5,5.5h4.3l-8.9-20.3H129.5z M125.2,43.7l3.8-8.9l3.8,8.9H125.2z"
					/>
				<polygon class="st16" points="147.5,50.5 147.5,31.5 153.8,31.5 153.8,30.2 137.2,30.2 137.2,31.5 143.5,31.5 143.5,50.5 				
					"/>
				<path class="st16" d="M171.3,47.8l-2.2-4.1c-0.4-0.9-1.3-1.6-2.3-2.1c3-0.9,4.8-3,4.8-5.5c0-3.4-3.3-6-7.6-6h-8.4v20.3h4.1V42
					h3.6c0.5,0.2,1,0.6,1.2,1.2l2.8,5.4c0.2,0.4,0.7,1.3,1.5,1.7l0.1,0.1h5l-1-0.6C172.4,49.5,171.7,48.7,171.3,47.8z M159.7,31.5
					h3.6c2.6,0,4.2,1.8,4.2,4.7c0,2.9-1.6,4.7-4.2,4.7h-3.6V31.5z"/>
				<rect x="174.8" y="30.2" class="st16" width="4.1" height="20.3"/>
				<polygon class="st16" points="191.9,39.6 198.5,30.2 196.7,30.2 191.1,38.5 185.7,30.2 181.2,30.2 188.3,41 181.7,50.5 
					183.4,50.5 189.1,42.3 194.6,50.5 199.1,50.5 				"/>
				<g>
					<path class="st16" d="M108.1,58.3c-6.1,0-10.7,4.5-10.7,10.5s4.6,10.5,10.7,10.5c6.1,0,10.7-4.5,10.7-10.5
						C118.8,62.8,114.2,58.3,108.1,58.3z M108.1,59.6c3.9,0,6.5,3.6,6.5,9.2s-2.6,9.2-6.5,9.2c-3.9,0-6.5-3.6-6.5-9.2
						S104.2,59.6,108.1,59.6z"/>
					<polygon class="st16" points="137.8,73.2 124.8,58.6 122.2,58.6 122.2,78.9 123.6,78.9 123.6,63.1 137.7,78.9 139.2,78.9 
						139.2,58.6 137.8,58.6 					"/>
					<polygon class="st16" points="147.8,69.3 156.1,69.3 156.1,68 147.8,68 147.8,59.9 158.3,59.9 158.3,58.6 143.8,58.6 
						143.8,78.9 158.6,78.9 158.6,77.6 147.8,77.6 					"/>
				</g>
			</g>
		</g>
		<g>
			<g>
				
					<linearGradient id="SVGID_17_" gradientUnits="userSpaceOnUse" x1="85.3427" y1="-244.31" x2="222.1651" y2="-178.5157" gradientTransform="matrix(1 0 0 -1 -32 -208.2)">
					<stop  offset="0" style="stop-color:#B18044"/>
					<stop  offset="0.4403" style="stop-color:#DAB871"/>
					<stop  offset="1" style="stop-color:#F1E9C5"/>
				</linearGradient>
				<polygon class="st17" points="104.3,22.2 108.4,22.2 108.4,3.3 114.5,3.3 114.5,2.1 98,2.1 98,3.3 104.3,3.3 				"/>
				
					<linearGradient id="SVGID_18_" gradientUnits="userSpaceOnUse" x1="89.7419" y1="-253.4582" x2="226.5643" y2="-187.6639" gradientTransform="matrix(1 0 0 -1 -32 -208.2)">
					<stop  offset="0" style="stop-color:#B18044"/>
					<stop  offset="0.4403" style="stop-color:#DAB871"/>
					<stop  offset="1" style="stop-color:#F1E9C5"/>
				</linearGradient>
				<polygon class="st18" points="131.4,22.2 135.5,22.2 135.5,2.1 131.4,2.1 131.4,11.3 121.7,11.3 121.7,2.1 117.7,2.1 
					117.7,22.2 121.7,22.2 121.7,12.6 131.4,12.6 				"/>
				
					<linearGradient id="SVGID_19_" gradientUnits="userSpaceOnUse" x1="93.5598" y1="-261.3978" x2="230.3822" y2="-195.6034" gradientTransform="matrix(1 0 0 -1 -32 -208.2)">
					<stop  offset="0" style="stop-color:#B18044"/>
					<stop  offset="0.4403" style="stop-color:#DAB871"/>
					<stop  offset="1" style="stop-color:#F1E9C5"/>
				</linearGradient>
				<polygon class="st19" points="154.3,20.9 143.6,20.9 143.6,12.6 151.8,12.6 151.8,11.3 143.6,11.3 143.6,3.3 154,3.3 154,2.1 
					139.5,2.1 139.5,22.2 154.3,22.2 				"/>
				
					<linearGradient id="SVGID_20_" gradientUnits="userSpaceOnUse" x1="97.3585" y1="-269.2973" x2="234.1809" y2="-203.503" gradientTransform="matrix(1 0 0 -1 -32 -208.2)">
					<stop  offset="0" style="stop-color:#B18044"/>
					<stop  offset="0.4403" style="stop-color:#DAB871"/>
					<stop  offset="1" style="stop-color:#F1E9C5"/>
				</linearGradient>
				<polygon class="st20" points="108.6,41 102.3,30.2 98,30.2 98,50.5 99.4,50.5 99.4,33.1 106.8,45.6 107.6,45.6 114.9,33.1 
					114.9,50.5 118.9,50.5 118.9,30.2 114.9,30.2 				"/>
				
					<linearGradient id="SVGID_21_" gradientUnits="userSpaceOnUse" x1="102.3188" y1="-279.6125" x2="239.1412" y2="-213.8182" gradientTransform="matrix(1 0 0 -1 -32 -208.2)">
					<stop  offset="0" style="stop-color:#B18044"/>
					<stop  offset="0.4403" style="stop-color:#DAB871"/>
					<stop  offset="1" style="stop-color:#F1E9C5"/>
				</linearGradient>
				<path class="st21" d="M129.5,30.2l-8.9,20.3h1.6l2.5-5.5h8.9l2.5,5.5h4.3l-8.9-20.3H129.5z M125.2,43.7l3.8-8.9l3.8,8.9H125.2z"
					/>
				
					<linearGradient id="SVGID_22_" gradientUnits="userSpaceOnUse" x1="103.7217" y1="-282.5299" x2="240.5441" y2="-216.7356" gradientTransform="matrix(1 0 0 -1 -32 -208.2)">
					<stop  offset="0" style="stop-color:#B18044"/>
					<stop  offset="0.4403" style="stop-color:#DAB871"/>
					<stop  offset="1" style="stop-color:#F1E9C5"/>
				</linearGradient>
				<polygon class="st22" points="147.5,50.5 147.5,31.5 153.8,31.5 153.8,30.2 137.2,30.2 137.2,31.5 143.5,31.5 143.5,50.5 				
					"/>
				
					<linearGradient id="SVGID_23_" gradientUnits="userSpaceOnUse" x1="107.8687" y1="-291.1538" x2="244.6911" y2="-225.3595" gradientTransform="matrix(1 0 0 -1 -32 -208.2)">
					<stop  offset="0" style="stop-color:#B18044"/>
					<stop  offset="0.4403" style="stop-color:#DAB871"/>
					<stop  offset="1" style="stop-color:#F1E9C5"/>
				</linearGradient>
				<path class="st23" d="M171.3,47.8l-2.2-4.1c-0.4-0.9-1.3-1.6-2.3-2.1c3-0.9,4.8-3,4.8-5.5c0-3.4-3.3-6-7.6-6h-8.4v20.3h4.1V42
					h3.6c0.5,0.2,1,0.6,1.2,1.2l2.8,5.4c0.2,0.4,0.7,1.3,1.5,1.7l0.1,0.1h5l-1-0.6C172.4,49.5,171.7,48.7,171.3,47.8z M159.7,31.5
					h3.6c2.6,0,4.2,1.8,4.2,4.7c0,2.9-1.6,4.7-4.2,4.7h-3.6V31.5z"/>
				
					<linearGradient id="SVGID_24_" gradientUnits="userSpaceOnUse" x1="110.2052" y1="-296.0126" x2="247.0276" y2="-230.2183" gradientTransform="matrix(1 0 0 -1 -32 -208.2)">
					<stop  offset="0" style="stop-color:#B18044"/>
					<stop  offset="0.4403" style="stop-color:#DAB871"/>
					<stop  offset="1" style="stop-color:#F1E9C5"/>
				</linearGradient>
				<rect x="174.8" y="30.2" class="st24" width="4.1" height="20.3"/>
				
					<linearGradient id="SVGID_25_" gradientUnits="userSpaceOnUse" x1="112.7003" y1="-301.2014" x2="249.5228" y2="-235.4071" gradientTransform="matrix(1 0 0 -1 -32 -208.2)">
					<stop  offset="0" style="stop-color:#B18044"/>
					<stop  offset="0.4403" style="stop-color:#DAB871"/>
					<stop  offset="1" style="stop-color:#F1E9C5"/>
				</linearGradient>
				<polygon class="st25" points="191.9,39.6 198.5,30.2 196.7,30.2 191.1,38.5 185.7,30.2 181.2,30.2 188.3,41 181.7,50.5 
					183.4,50.5 189.1,42.3 194.6,50.5 199.1,50.5 				"/>
				<g>
					
						<linearGradient id="SVGID_26_" gradientUnits="userSpaceOnUse" x1="108.3846" y1="-292.2266" x2="245.207" y2="-226.4323" gradientTransform="matrix(1 0 0 -1 -32 -208.2)">
						<stop  offset="0" style="stop-color:#B18044"/>
						<stop  offset="0.4403" style="stop-color:#DAB871"/>
						<stop  offset="1" style="stop-color:#F1E9C5"/>
					</linearGradient>
					<path class="st26" d="M108.1,58.3c-6.1,0-10.7,4.5-10.7,10.5s4.6,10.5,10.7,10.5c6.1,0,10.7-4.5,10.7-10.5
						C118.8,62.8,114.2,58.3,108.1,58.3z M108.1,59.6c3.9,0,6.5,3.6,6.5,9.2s-2.6,9.2-6.5,9.2c-3.9,0-6.5-3.6-6.5-9.2
						S104.2,59.6,108.1,59.6z"/>
					
						<linearGradient id="SVGID_27_" gradientUnits="userSpaceOnUse" x1="112.6234" y1="-301.0414" x2="249.4458" y2="-235.2471" gradientTransform="matrix(1 0 0 -1 -32 -208.2)">
						<stop  offset="0" style="stop-color:#B18044"/>
						<stop  offset="0.4403" style="stop-color:#DAB871"/>
						<stop  offset="1" style="stop-color:#F1E9C5"/>
					</linearGradient>
					<polygon class="st27" points="137.8,73.2 124.8,58.6 122.2,58.6 122.2,78.9 123.6,78.9 123.6,63.1 137.7,78.9 139.2,78.9 
						139.2,58.6 137.8,58.6 					"/>
					
						<linearGradient id="SVGID_28_" gradientUnits="userSpaceOnUse" x1="116.4714" y1="-309.0435" x2="253.2938" y2="-243.2491" gradientTransform="matrix(1 0 0 -1 -32 -208.2)">
						<stop  offset="0" style="stop-color:#B18044"/>
						<stop  offset="0.4403" style="stop-color:#DAB871"/>
						<stop  offset="1" style="stop-color:#F1E9C5"/>
					</linearGradient>
					<polygon class="st28" points="147.8,69.3 156.1,69.3 156.1,68 147.8,68 147.8,59.9 158.3,59.9 158.3,58.6 143.8,58.6 
						143.8,78.9 158.6,78.9 158.6,77.6 147.8,77.6 					"/>
				</g>
			</g>
		</g>
	</g>
</g>
</svg>
