<?xml version="1.0" encoding="utf-8"?>
<!-- Generator: Adobe Illustrator 23.0.1, SVG Export Plug-In . SVG Version: 6.00 Build 0)  -->
<svg version="1.1" id="Layer_1" xmlns="http://www.w3.org/2000/svg" xmlns:xlink="http://www.w3.org/1999/xlink" x="0px" y="0px"
	 width="200px" height="200px" viewBox="0 0 200 200" enable-background="new 0 0 200 200" xml:space="preserve">
<g>
	<g>
		<g>
			<linearGradient id="SVGID_1_" gradientUnits="userSpaceOnUse" x1="65.1673" y1="116.4289" x2="193.3838" y2="54.7728">
				<stop  offset="0" style="stop-color:#B18044"/>
				<stop  offset="0.4403" style="stop-color:#DAB871"/>
				<stop  offset="1" style="stop-color:#F1E9C5"/>
			</linearGradient>
			<path fill="url(#SVGID_1_)" d="M40.8,135.8h0.8c8.2-18.9,26.4-32.4,48-33.7v-0.7C67.6,102.7,49,116.5,40.8,135.8z"/>
			<linearGradient id="SVGID_2_" gradientUnits="userSpaceOnUse" x1="66.0438" y1="118.2517" x2="194.2603" y2="56.5957">
				<stop  offset="0" style="stop-color:#B18044"/>
				<stop  offset="0.4403" style="stop-color:#DAB871"/>
				<stop  offset="1" style="stop-color:#F1E9C5"/>
			</linearGradient>
			<path fill="url(#SVGID_2_)" d="M43.7,135.8h0.9c7.9-17.3,24.9-29.6,44.9-30.8v-0.8C69.1,105.4,51.7,118.1,43.7,135.8z"/>
			<linearGradient id="SVGID_3_" gradientUnits="userSpaceOnUse" x1="66.9246" y1="120.0833" x2="195.1411" y2="58.4273">
				<stop  offset="0" style="stop-color:#B18044"/>
				<stop  offset="0.4403" style="stop-color:#DAB871"/>
				<stop  offset="1" style="stop-color:#F1E9C5"/>
			</linearGradient>
			<path fill="url(#SVGID_3_)" d="M46.7,135.8h1.1c7.7-15.7,23.4-26.7,41.7-28v-1C70.6,108.1,54.5,119.6,46.7,135.8z"/>
			<linearGradient id="SVGID_4_" gradientUnits="userSpaceOnUse" x1="67.8091" y1="121.9227" x2="196.0256" y2="60.2667">
				<stop  offset="0" style="stop-color:#B18044"/>
				<stop  offset="0.4403" style="stop-color:#DAB871"/>
				<stop  offset="1" style="stop-color:#F1E9C5"/>
			</linearGradient>
			<path fill="url(#SVGID_4_)" d="M49.7,135.8H51c7.4-14.1,21.8-23.9,38.5-25.1v-1.1C72.1,110.7,57.3,121.1,49.7,135.8z"/>
			<linearGradient id="SVGID_5_" gradientUnits="userSpaceOnUse" x1="68.6974" y1="123.7701" x2="196.914" y2="62.1141">
				<stop  offset="0" style="stop-color:#B18044"/>
				<stop  offset="0.4403" style="stop-color:#DAB871"/>
				<stop  offset="1" style="stop-color:#F1E9C5"/>
			</linearGradient>
			<path fill="url(#SVGID_5_)" d="M52.8,135.8h1.5c7.2-12.4,20.2-21.1,35.3-22.3v-1.3C73.7,113.4,60.1,122.6,52.8,135.8z"/>
			<linearGradient id="SVGID_6_" gradientUnits="userSpaceOnUse" x1="69.5943" y1="125.6352" x2="197.8109" y2="63.9792">
				<stop  offset="0" style="stop-color:#B18044"/>
				<stop  offset="0.4403" style="stop-color:#DAB871"/>
				<stop  offset="1" style="stop-color:#F1E9C5"/>
			</linearGradient>
			<path fill="url(#SVGID_6_)" d="M55.9,135.8h1.7c6.8-10.8,18.5-18.3,31.9-19.4v-1.4C75.2,116,62.9,124.1,55.9,135.8z"/>
			<linearGradient id="SVGID_7_" gradientUnits="userSpaceOnUse" x1="70.4989" y1="127.5163" x2="198.7154" y2="65.8603">
				<stop  offset="0" style="stop-color:#B18044"/>
				<stop  offset="0.4403" style="stop-color:#DAB871"/>
				<stop  offset="1" style="stop-color:#F1E9C5"/>
			</linearGradient>
			<path fill="url(#SVGID_7_)" d="M59.1,135.8H61c6.4-9.2,16.7-15.5,28.5-16.6v-1.6C76.8,118.7,65.7,125.7,59.1,135.8z"/>
			<linearGradient id="SVGID_8_" gradientUnits="userSpaceOnUse" x1="71.4144" y1="129.42" x2="199.6309" y2="67.764">
				<stop  offset="0" style="stop-color:#B18044"/>
				<stop  offset="0.4403" style="stop-color:#DAB871"/>
				<stop  offset="1" style="stop-color:#F1E9C5"/>
			</linearGradient>
			<path fill="url(#SVGID_8_)" d="M62.3,135.8h2.2c5.9-7.6,14.9-12.8,25-13.7v-1.7C78.3,121.3,68.6,127.2,62.3,135.8z"/>
			<linearGradient id="SVGID_9_" gradientUnits="userSpaceOnUse" x1="72.3462" y1="131.3578" x2="200.5627" y2="69.7018">
				<stop  offset="0" style="stop-color:#B18044"/>
				<stop  offset="0.4403" style="stop-color:#DAB871"/>
				<stop  offset="1" style="stop-color:#F1E9C5"/>
			</linearGradient>
			<path fill="url(#SVGID_9_)" d="M65.7,135.8h2.5c5.4-6,12.9-10,21.3-10.9V123C79.9,124,71.5,128.7,65.7,135.8z"/>
			<linearGradient id="SVGID_10_" gradientUnits="userSpaceOnUse" x1="73.3637" y1="133.4737" x2="201.5802" y2="71.8177">
				<stop  offset="0" style="stop-color:#B18044"/>
				<stop  offset="0.4403" style="stop-color:#DAB871"/>
				<stop  offset="1" style="stop-color:#F1E9C5"/>
			</linearGradient>
			<path fill="url(#SVGID_10_)" d="M69.3,135.8h2.9c4.6-4.3,10.6-7.3,17.3-8v-2.1C81.6,126.6,74.5,130.3,69.3,135.8z"/>
			<linearGradient id="SVGID_11_" gradientUnits="userSpaceOnUse" x1="74.5057" y1="135.8486" x2="202.7222" y2="74.1926">
				<stop  offset="0" style="stop-color:#B18044"/>
				<stop  offset="0.4403" style="stop-color:#DAB871"/>
				<stop  offset="1" style="stop-color:#F1E9C5"/>
			</linearGradient>
			<path fill="url(#SVGID_11_)" d="M73.2,135.8h3.5c3.7-2.7,8.1-4.5,12.9-5.2v-2.2C83.3,129.2,77.6,131.8,73.2,135.8z"/>
			<linearGradient id="SVGID_12_" gradientUnits="userSpaceOnUse" x1="75.651" y1="138.2304" x2="203.8676" y2="76.5743">
				<stop  offset="0" style="stop-color:#B18044"/>
				<stop  offset="0.4403" style="stop-color:#DAB871"/>
				<stop  offset="1" style="stop-color:#F1E9C5"/>
			</linearGradient>
			<path fill="url(#SVGID_12_)" d="M77.5,135.8h4.6c2.3-1.1,4.8-1.9,7.4-2.3v-2.4C85.1,131.7,81,133.4,77.5,135.8z"/>
			<linearGradient id="SVGID_13_" gradientUnits="userSpaceOnUse" x1="76.6806" y1="140.3714" x2="204.8971" y2="78.7154">
				<stop  offset="0" style="stop-color:#B18044"/>
				<stop  offset="0.4403" style="stop-color:#DAB871"/>
				<stop  offset="1" style="stop-color:#F1E9C5"/>
			</linearGradient>
			<path fill="url(#SVGID_13_)" d="M82.9,135.8h6.6v-1.9C87.2,134.2,85,134.9,82.9,135.8z"/>
		</g>
	</g>
	<linearGradient id="SVGID_14_" gradientUnits="userSpaceOnUse" x1="58.069" y1="101.6677" x2="186.2855" y2="40.0116">
		<stop  offset="0" style="stop-color:#B18044"/>
		<stop  offset="0.4403" style="stop-color:#DAB871"/>
		<stop  offset="1" style="stop-color:#F1E9C5"/>
	</linearGradient>
	<path fill="url(#SVGID_14_)" d="M6.2,107.5v2l34.7,22c0-0.1,0.1-0.2,0.1-0.2L6.2,107.5z M6.2,107.5v2l34.7,22
		c0-0.1,0.1-0.2,0.1-0.2L6.2,107.5z M6.2,107.5v2l34.7,22c0-0.1,0.1-0.2,0.1-0.2L6.2,107.5z M6.2,107.5v2l34.7,22
		c0-0.1,0.1-0.2,0.1-0.2L6.2,107.5z M6.2,107.5v2l34.7,22c0-0.1,0.1-0.2,0.1-0.2L6.2,107.5z M6.2,101.7v1.9l35.1,27.4
		c0-0.1,0.1-0.1,0.1-0.2L6.2,101.7z M6.2,109.6l34.7,22c0-0.1,0.1-0.2,0.1-0.2L6.2,107.5V109.6z M6.2,107.5v2l34.7,22
		c0-0.1,0.1-0.2,0.1-0.2L6.2,107.5z M6.2,107.5v2l34.7,22c0-0.1,0.1-0.2,0.1-0.2L6.2,107.5z M6.2,107.5v2l34.7,22
		c0-0.1,0.1-0.2,0.1-0.2L6.2,107.5z M6.2,107.5v2l34.7,22c0-0.1,0.1-0.2,0.1-0.2L6.2,107.5z M13.5,102.7c-0.6-0.1-1.2-0.2-1.9-0.4
		l29.9,28c0,0,0.1-0.1,0.1-0.2L13.5,102.7z M31.4,109.7c-0.6-0.4-1.2-0.7-1.8-1.1l13,19.9c0-0.1,0.1-0.2,0.2-0.3L31.4,109.7z
		 M36.2,112.9c-0.5-0.4-1.1-0.8-1.6-1.2l8.5,16c0.1-0.1,0.1-0.2,0.2-0.3L36.2,112.9z M40.1,116.1c-0.4-0.4-0.9-0.8-1.3-1.1l4.9,11.8
		c0.1-0.1,0.2-0.2,0.2-0.4L40.1,116.1z M43,119c-0.3-0.4-0.7-0.7-1-1.1l2.4,7.8c0.1-0.2,0.2-0.3,0.3-0.5L43,119z M6.2,128.5v2.5
		l33.2,3.8c0.1-0.1,0.1-0.3,0.2-0.4L6.2,128.5z M19.8,104.3c-0.6-0.2-1.3-0.4-2-0.6l24.1,26.1c0-0.1,0.1-0.1,0.1-0.2L19.8,104.3z
		 M25.8,106.7c-0.6-0.3-1.3-0.6-1.9-0.9l18.3,23.4c0-0.1,0.1-0.1,0.1-0.2L25.8,106.7z M6.2,113.2v2.1l34.4,17c0-0.1,0.1-0.2,0.1-0.3
		L6.2,113.2z M6.2,118.5v2.2l34,12.3c0-0.1,0.1-0.2,0.2-0.3L6.2,118.5z M6.2,123.6v2.3l33.6,7.9c0.1-0.1,0.1-0.3,0.2-0.4L6.2,123.6z
		 M45.2,121.4c-0.3-0.3-0.5-0.6-0.8-0.9l0.8,4c0.1-0.2,0.3-0.4,0.4-0.6L45.2,121.4z M6.2,133.2v2.6l32.8,0c0,0,0-0.1,0-0.1
		c0.1-0.1,0.1-0.3,0.2-0.4L6.2,133.2z"/>
	<g>
		<linearGradient id="SVGID_15_" gradientUnits="userSpaceOnUse" x1="54.4305" y1="94.0124" x2="182.647" y2="32.3563">
			<stop  offset="0" style="stop-color:#B18044"/>
			<stop  offset="0.4403" style="stop-color:#DAB871"/>
			<stop  offset="1" style="stop-color:#F1E9C5"/>
		</linearGradient>
		<path fill="url(#SVGID_15_)" d="M89.5,63.9v35.7c-7.6,0.5-14.8,2.4-21.3,5.5V94.2l-5.7,7L51.3,87.6l16.9-20.7l2.4-3H89.5z"/>
		<linearGradient id="SVGID_16_" gradientUnits="userSpaceOnUse" x1="48.2776" y1="81.306" x2="176.4941" y2="19.65">
			<stop  offset="0" style="stop-color:#B18044"/>
			<stop  offset="0.4403" style="stop-color:#DAB871"/>
			<stop  offset="1" style="stop-color:#F1E9C5"/>
		</linearGradient>
		<path fill="url(#SVGID_16_)" d="M59,105.5l-11.1,13.7l-11.1-13.7l-9.2-11.3v11c-6.5-3.1-13.7-5.1-21.3-5.6V63.9h18.9l2.4,3
			l20.3,25L59,105.5z"/>
	</g>
</g>
<g>
	<g>
		<g>
			<polygon fill="#FFFFFF" points="103,82.8 106.8,82.8 106.8,65.1 112.6,65.1 112.6,63.9 97.1,63.9 97.1,65.1 103,65.1 			"/>
			<polygon fill="#FFFFFF" points="128.4,82.8 132.2,82.8 132.2,63.9 128.4,63.9 128.4,72.6 119.3,72.6 119.3,63.9 115.6,63.9 
				115.6,82.8 119.3,82.8 119.3,73.8 128.4,73.8 			"/>
			<polygon fill="#FFFFFF" points="149.9,81.6 139.8,81.6 139.8,73.8 147.5,73.8 147.5,72.6 139.8,72.6 139.8,65.1 149.6,65.1 
				149.6,63.9 136,63.9 136,82.8 149.9,82.8 			"/>
			<polygon fill="#FFFFFF" points="107,100.4 101.1,90.3 97.1,90.3 97.1,109.3 98.4,109.3 98.4,93 105.3,104.7 106.1,104.7 
				112.9,93 112.9,109.3 116.7,109.3 116.7,90.3 112.9,90.3 			"/>
			<path fill="#FFFFFF" d="M126.6,90.3l-8.3,19h1.5l2.3-5.2h8.3l2.3,5.2h4l-8.3-19H126.6z M122.6,102.9l3.6-8.3l3.6,8.3H122.6z"/>
			<polygon fill="#FFFFFF" points="143.5,109.3 143.5,91.5 149.4,91.5 149.4,90.3 133.8,90.3 133.8,91.5 139.7,91.5 139.7,109.3 			
				"/>
			<path fill="#FFFFFF" d="M165.8,106.8l-2.1-3.8c-0.4-0.8-1.2-1.5-2.2-2c2.8-0.8,4.5-2.8,4.5-5.2c0-3.2-3.1-5.6-7.1-5.6h-7.9v19
				h3.8v-7.9h3.4c0.5,0.2,0.9,0.6,1.1,1.1l2.6,5.1c0.2,0.4,0.7,1.2,1.4,1.6l0.1,0.1h4.7l-0.9-0.6
				C166.8,108.4,166.2,107.6,165.8,106.8z M154.9,91.5h3.4c2.4,0,3.9,1.7,3.9,4.4s-1.5,4.4-3.9,4.4h-3.4V91.5z"/>
			<rect x="169.1" y="90.3" fill="#FFFFFF" width="3.8" height="19"/>
			<polygon fill="#FFFFFF" points="185.1,99.1 191.3,90.3 189.6,90.3 184.3,98 179.3,90.3 175.1,90.3 181.7,100.4 175.5,109.3 
				177.1,109.3 182.5,101.6 187.6,109.3 191.8,109.3 			"/>
			<g>
				<path fill="#FFFFFF" d="M106.6,116.6c-5.7,0-10,4.2-10,9.8c0,5.6,4.3,9.8,10,9.8c5.7,0,10-4.2,10-9.8
					C116.6,120.8,112.3,116.6,106.6,116.6z M106.6,117.8c3.7,0,6.1,3.4,6.1,8.6s-2.4,8.6-6.1,8.6c-3.7,0-6.1-3.4-6.1-8.6
					S102.9,117.8,106.6,117.8z"/>
				<polygon fill="#FFFFFF" points="134.4,130.6 122.2,116.9 119.8,116.9 119.8,135.9 121.1,135.9 121.1,121.1 134.3,135.9 
					135.7,135.9 135.7,116.9 134.4,116.9 				"/>
				<polygon fill="#FFFFFF" points="143.8,126.9 151.5,126.9 151.5,125.7 143.8,125.7 143.8,118.1 153.6,118.1 153.6,116.9 
					140,116.9 140,135.9 153.9,135.9 153.9,134.7 143.8,134.7 				"/>
			</g>
		</g>
	</g>
	<g>
		<g>
			<linearGradient id="SVGID_17_" gradientUnits="userSpaceOnUse" x1="70.0382" y1="126.5583" x2="198.2548" y2="64.9023">
				<stop  offset="0" style="stop-color:#B18044"/>
				<stop  offset="0.4403" style="stop-color:#DAB871"/>
				<stop  offset="1" style="stop-color:#F1E9C5"/>
			</linearGradient>
			<polygon fill="url(#SVGID_17_)" points="103,82.8 106.8,82.8 106.8,65.1 112.6,65.1 112.6,63.9 97.1,63.9 97.1,65.1 103,65.1 			
				"/>
			<linearGradient id="SVGID_18_" gradientUnits="userSpaceOnUse" x1="70.0382" y1="126.5583" x2="198.2548" y2="64.9023">
				<stop  offset="0" style="stop-color:#B18044"/>
				<stop  offset="0.4403" style="stop-color:#DAB871"/>
				<stop  offset="1" style="stop-color:#F1E9C5"/>
			</linearGradient>
			<polygon fill="url(#SVGID_18_)" points="128.4,82.8 132.2,82.8 132.2,63.9 128.4,63.9 128.4,72.6 119.3,72.6 119.3,63.9 
				115.6,63.9 115.6,82.8 119.3,82.8 119.3,73.8 128.4,73.8 			"/>
			<linearGradient id="SVGID_19_" gradientUnits="userSpaceOnUse" x1="70.0382" y1="126.5583" x2="198.2548" y2="64.9023">
				<stop  offset="0" style="stop-color:#B18044"/>
				<stop  offset="0.4403" style="stop-color:#DAB871"/>
				<stop  offset="1" style="stop-color:#F1E9C5"/>
			</linearGradient>
			<polygon fill="url(#SVGID_19_)" points="149.9,81.6 139.8,81.6 139.8,73.8 147.5,73.8 147.5,72.6 139.8,72.6 139.8,65.1 
				149.6,65.1 149.6,63.9 136,63.9 136,82.8 149.9,82.8 			"/>
			<linearGradient id="SVGID_20_" gradientUnits="userSpaceOnUse" x1="70.0382" y1="126.5583" x2="198.2548" y2="64.9023">
				<stop  offset="0" style="stop-color:#B18044"/>
				<stop  offset="0.4403" style="stop-color:#DAB871"/>
				<stop  offset="1" style="stop-color:#F1E9C5"/>
			</linearGradient>
			<polygon fill="url(#SVGID_20_)" points="107,100.4 101.1,90.3 97.1,90.3 97.1,109.3 98.4,109.3 98.4,93 105.3,104.7 106.1,104.7 
				112.9,93 112.9,109.3 116.7,109.3 116.7,90.3 112.9,90.3 			"/>
			<linearGradient id="SVGID_21_" gradientUnits="userSpaceOnUse" x1="70.0382" y1="126.5583" x2="198.2548" y2="64.9023">
				<stop  offset="0" style="stop-color:#B18044"/>
				<stop  offset="0.4403" style="stop-color:#DAB871"/>
				<stop  offset="1" style="stop-color:#F1E9C5"/>
			</linearGradient>
			<path fill="url(#SVGID_21_)" d="M126.6,90.3l-8.3,19h1.5l2.3-5.2h8.3l2.3,5.2h4l-8.3-19H126.6z M122.6,102.9l3.6-8.3l3.6,8.3
				H122.6z"/>
			<linearGradient id="SVGID_22_" gradientUnits="userSpaceOnUse" x1="70.0382" y1="126.5583" x2="198.2548" y2="64.9023">
				<stop  offset="0" style="stop-color:#B18044"/>
				<stop  offset="0.4403" style="stop-color:#DAB871"/>
				<stop  offset="1" style="stop-color:#F1E9C5"/>
			</linearGradient>
			<polygon fill="url(#SVGID_22_)" points="143.5,109.3 143.5,91.5 149.4,91.5 149.4,90.3 133.8,90.3 133.8,91.5 139.7,91.5 
				139.7,109.3 			"/>
			<linearGradient id="SVGID_23_" gradientUnits="userSpaceOnUse" x1="70.0382" y1="126.5583" x2="198.2548" y2="64.9023">
				<stop  offset="0" style="stop-color:#B18044"/>
				<stop  offset="0.4403" style="stop-color:#DAB871"/>
				<stop  offset="1" style="stop-color:#F1E9C5"/>
			</linearGradient>
			<path fill="url(#SVGID_23_)" d="M165.8,106.8l-2.1-3.8c-0.4-0.8-1.2-1.5-2.2-2c2.8-0.8,4.5-2.8,4.5-5.2c0-3.2-3.1-5.6-7.1-5.6
				h-7.9v19h3.8v-7.9h3.4c0.5,0.2,0.9,0.6,1.1,1.1l2.6,5.1c0.2,0.4,0.7,1.2,1.4,1.6l0.1,0.1h4.7l-0.9-0.6
				C166.8,108.4,166.2,107.6,165.8,106.8z M154.9,91.5h3.4c2.4,0,3.9,1.7,3.9,4.4s-1.5,4.4-3.9,4.4h-3.4V91.5z"/>
			<linearGradient id="SVGID_24_" gradientUnits="userSpaceOnUse" x1="70.0382" y1="126.5583" x2="198.2548" y2="64.9023">
				<stop  offset="0" style="stop-color:#B18044"/>
				<stop  offset="0.4403" style="stop-color:#DAB871"/>
				<stop  offset="1" style="stop-color:#F1E9C5"/>
			</linearGradient>
			<rect x="169.1" y="90.3" fill="url(#SVGID_24_)" width="3.8" height="19"/>
			<linearGradient id="SVGID_25_" gradientUnits="userSpaceOnUse" x1="70.0382" y1="126.5583" x2="198.2548" y2="64.9023">
				<stop  offset="0" style="stop-color:#B18044"/>
				<stop  offset="0.4403" style="stop-color:#DAB871"/>
				<stop  offset="1" style="stop-color:#F1E9C5"/>
			</linearGradient>
			<polygon fill="url(#SVGID_25_)" points="185.1,99.1 191.3,90.3 189.6,90.3 184.3,98 179.3,90.3 175.1,90.3 181.7,100.4 
				175.5,109.3 177.1,109.3 182.5,101.6 187.6,109.3 191.8,109.3 			"/>
			<g>
				<linearGradient id="SVGID_26_" gradientUnits="userSpaceOnUse" x1="70.0382" y1="126.5583" x2="198.2548" y2="64.9023">
					<stop  offset="0" style="stop-color:#B18044"/>
					<stop  offset="0.4403" style="stop-color:#DAB871"/>
					<stop  offset="1" style="stop-color:#F1E9C5"/>
				</linearGradient>
				<path fill="url(#SVGID_26_)" d="M106.6,116.6c-5.7,0-10,4.2-10,9.8c0,5.6,4.3,9.8,10,9.8c5.7,0,10-4.2,10-9.8
					C116.6,120.8,112.3,116.6,106.6,116.6z M106.6,117.8c3.7,0,6.1,3.4,6.1,8.6s-2.4,8.6-6.1,8.6c-3.7,0-6.1-3.4-6.1-8.6
					S102.9,117.8,106.6,117.8z"/>
				<linearGradient id="SVGID_27_" gradientUnits="userSpaceOnUse" x1="70.0382" y1="126.5583" x2="198.2548" y2="64.9023">
					<stop  offset="0" style="stop-color:#B18044"/>
					<stop  offset="0.4403" style="stop-color:#DAB871"/>
					<stop  offset="1" style="stop-color:#F1E9C5"/>
				</linearGradient>
				<polygon fill="url(#SVGID_27_)" points="134.4,130.6 122.2,116.9 119.8,116.9 119.8,135.9 121.1,135.9 121.1,121.1 134.3,135.9 
					135.7,135.9 135.7,116.9 134.4,116.9 				"/>
				<linearGradient id="SVGID_28_" gradientUnits="userSpaceOnUse" x1="70.0382" y1="126.5583" x2="198.2548" y2="64.9023">
					<stop  offset="0" style="stop-color:#B18044"/>
					<stop  offset="0.4403" style="stop-color:#DAB871"/>
					<stop  offset="1" style="stop-color:#F1E9C5"/>
				</linearGradient>
				<polygon fill="url(#SVGID_28_)" points="143.8,126.9 151.5,126.9 151.5,125.7 143.8,125.7 143.8,118.1 153.6,118.1 153.6,116.9 
					140,116.9 140,135.9 153.9,135.9 153.9,134.7 143.8,134.7 				"/>
			</g>
		</g>
	</g>
</g>
</svg>
