<?xml version="1.0" encoding="utf-8"?>
<!-- Generator: Adobe Illustrator 23.0.1, SVG Export Plug-In . SVG Version: 6.00 Build 0)  -->
<svg version="1.1" id="Layer_1" xmlns="http://www.w3.org/2000/svg" xmlns:xlink="http://www.w3.org/1999/xlink" x="0px" y="0px"
	 width="200px" height="90px" viewBox="0 0 200 90" enable-background="new 0 0 200 90" xml:space="preserve">
<g>
	<g>
		<g>
			<g>
				<linearGradient id="SVGID_1_" gradientUnits="userSpaceOnUse" x1="66.1673" y1="61.4289" x2="194.3838" y2="-0.2272">
					<stop  offset="0" style="stop-color:#B18044"/>
					<stop  offset="0.4403" style="stop-color:#DAB871"/>
					<stop  offset="1" style="stop-color:#F1E9C5"/>
				</linearGradient>
				<path fill="url(#SVGID_1_)" d="M41.8,80.8h0.8c8.2-18.9,26.4-32.4,48-33.7v-0.7C68.6,47.7,50,61.5,41.8,80.8z"/>
				<linearGradient id="SVGID_2_" gradientUnits="userSpaceOnUse" x1="67.0438" y1="63.2518" x2="195.2603" y2="1.5957">
					<stop  offset="0" style="stop-color:#B18044"/>
					<stop  offset="0.4403" style="stop-color:#DAB871"/>
					<stop  offset="1" style="stop-color:#F1E9C5"/>
				</linearGradient>
				<path fill="url(#SVGID_2_)" d="M44.7,80.8h0.9C53.6,63.5,70.6,51.2,90.5,50v-0.8C70.1,50.4,52.7,63.1,44.7,80.8z"/>
				<linearGradient id="SVGID_3_" gradientUnits="userSpaceOnUse" x1="67.9246" y1="65.0833" x2="196.1411" y2="3.4273">
					<stop  offset="0" style="stop-color:#B18044"/>
					<stop  offset="0.4403" style="stop-color:#DAB871"/>
					<stop  offset="1" style="stop-color:#F1E9C5"/>
				</linearGradient>
				<path fill="url(#SVGID_3_)" d="M47.7,80.8h1.1c7.7-15.7,23.4-26.7,41.7-28v-1C71.6,53.1,55.5,64.6,47.7,80.8z"/>
				<linearGradient id="SVGID_4_" gradientUnits="userSpaceOnUse" x1="68.8091" y1="66.9227" x2="197.0256" y2="5.2667">
					<stop  offset="0" style="stop-color:#B18044"/>
					<stop  offset="0.4403" style="stop-color:#DAB871"/>
					<stop  offset="1" style="stop-color:#F1E9C5"/>
				</linearGradient>
				<path fill="url(#SVGID_4_)" d="M50.7,80.8H52c7.4-14.1,21.8-23.9,38.5-25.1v-1.1C73.1,55.7,58.3,66.1,50.7,80.8z"/>
				<linearGradient id="SVGID_5_" gradientUnits="userSpaceOnUse" x1="69.6974" y1="68.7701" x2="197.914" y2="7.1141">
					<stop  offset="0" style="stop-color:#B18044"/>
					<stop  offset="0.4403" style="stop-color:#DAB871"/>
					<stop  offset="1" style="stop-color:#F1E9C5"/>
				</linearGradient>
				<path fill="url(#SVGID_5_)" d="M53.8,80.8h1.5c7.2-12.4,20.2-21.1,35.3-22.3v-1.3C74.7,58.4,61.1,67.6,53.8,80.8z"/>
				<linearGradient id="SVGID_6_" gradientUnits="userSpaceOnUse" x1="70.5943" y1="70.6352" x2="198.8109" y2="8.9792">
					<stop  offset="0" style="stop-color:#B18044"/>
					<stop  offset="0.4403" style="stop-color:#DAB871"/>
					<stop  offset="1" style="stop-color:#F1E9C5"/>
				</linearGradient>
				<path fill="url(#SVGID_6_)" d="M56.9,80.8h1.7C65.4,70,77,62.5,90.5,61.4v-1.4C76.2,61,63.9,69.1,56.9,80.8z"/>
				<linearGradient id="SVGID_7_" gradientUnits="userSpaceOnUse" x1="71.4989" y1="72.5163" x2="199.7154" y2="10.8603">
					<stop  offset="0" style="stop-color:#B18044"/>
					<stop  offset="0.4403" style="stop-color:#DAB871"/>
					<stop  offset="1" style="stop-color:#F1E9C5"/>
				</linearGradient>
				<path fill="url(#SVGID_7_)" d="M60.1,80.8H62c6.4-9.2,16.7-15.5,28.5-16.6v-1.6C77.8,63.7,66.7,70.7,60.1,80.8z"/>
				<linearGradient id="SVGID_8_" gradientUnits="userSpaceOnUse" x1="72.4144" y1="74.42" x2="200.6309" y2="12.764">
					<stop  offset="0" style="stop-color:#B18044"/>
					<stop  offset="0.4403" style="stop-color:#DAB871"/>
					<stop  offset="1" style="stop-color:#F1E9C5"/>
				</linearGradient>
				<path fill="url(#SVGID_8_)" d="M63.3,80.8h2.2c5.9-7.6,14.9-12.8,25-13.7v-1.7C79.3,66.3,69.6,72.2,63.3,80.8z"/>
				<linearGradient id="SVGID_9_" gradientUnits="userSpaceOnUse" x1="73.3462" y1="76.3578" x2="201.5627" y2="14.7018">
					<stop  offset="0" style="stop-color:#B18044"/>
					<stop  offset="0.4403" style="stop-color:#DAB871"/>
					<stop  offset="1" style="stop-color:#F1E9C5"/>
				</linearGradient>
				<path fill="url(#SVGID_9_)" d="M66.7,80.8h2.5c5.4-6,12.9-10,21.3-10.9V68C80.9,69,72.5,73.7,66.7,80.8z"/>
				<linearGradient id="SVGID_10_" gradientUnits="userSpaceOnUse" x1="74.3637" y1="78.4737" x2="202.5802" y2="16.8177">
					<stop  offset="0" style="stop-color:#B18044"/>
					<stop  offset="0.4403" style="stop-color:#DAB871"/>
					<stop  offset="1" style="stop-color:#F1E9C5"/>
				</linearGradient>
				<path fill="url(#SVGID_10_)" d="M70.3,80.8h2.9c4.6-4.3,10.6-7.3,17.3-8v-2.1C82.6,71.6,75.5,75.3,70.3,80.8z"/>
				<linearGradient id="SVGID_11_" gradientUnits="userSpaceOnUse" x1="75.5057" y1="80.8486" x2="203.7222" y2="19.1926">
					<stop  offset="0" style="stop-color:#B18044"/>
					<stop  offset="0.4403" style="stop-color:#DAB871"/>
					<stop  offset="1" style="stop-color:#F1E9C5"/>
				</linearGradient>
				<path fill="url(#SVGID_11_)" d="M74.2,80.8h3.5c3.7-2.7,8.1-4.5,12.9-5.2v-2.2C84.3,74.2,78.6,76.8,74.2,80.8z"/>
				<linearGradient id="SVGID_12_" gradientUnits="userSpaceOnUse" x1="76.651" y1="83.2304" x2="204.8676" y2="21.5744">
					<stop  offset="0" style="stop-color:#B18044"/>
					<stop  offset="0.4403" style="stop-color:#DAB871"/>
					<stop  offset="1" style="stop-color:#F1E9C5"/>
				</linearGradient>
				<path fill="url(#SVGID_12_)" d="M78.5,80.8h4.6c2.3-1.1,4.8-1.9,7.4-2.3v-2.4C86.1,76.7,82,78.4,78.5,80.8z"/>
				<linearGradient id="SVGID_13_" gradientUnits="userSpaceOnUse" x1="77.6806" y1="85.3714" x2="205.8971" y2="23.7154">
					<stop  offset="0" style="stop-color:#B18044"/>
					<stop  offset="0.4403" style="stop-color:#DAB871"/>
					<stop  offset="1" style="stop-color:#F1E9C5"/>
				</linearGradient>
				<path fill="url(#SVGID_13_)" d="M83.9,80.8h6.6v-1.9C88.2,79.2,86,79.9,83.9,80.8z"/>
			</g>
		</g>
		<linearGradient id="SVGID_14_" gradientUnits="userSpaceOnUse" x1="59.069" y1="46.6677" x2="187.2855" y2="-14.9884">
			<stop  offset="0" style="stop-color:#B18044"/>
			<stop  offset="0.4403" style="stop-color:#DAB871"/>
			<stop  offset="1" style="stop-color:#F1E9C5"/>
		</linearGradient>
		<path fill="url(#SVGID_14_)" d="M7.2,52.5v2l34.7,22c0-0.1,0.1-0.2,0.1-0.2L7.2,52.5z M7.2,52.5v2l34.7,22c0-0.1,0.1-0.2,0.1-0.2
			L7.2,52.5z M7.2,52.5v2l34.7,22c0-0.1,0.1-0.2,0.1-0.2L7.2,52.5z M7.2,52.5v2l34.7,22c0-0.1,0.1-0.2,0.1-0.2L7.2,52.5z M7.2,52.5
			v2l34.7,22c0-0.1,0.1-0.2,0.1-0.2L7.2,52.5z M7.2,46.7v1.9l35.1,27.4c0-0.1,0.1-0.1,0.1-0.2L7.2,46.7z M7.2,54.6l34.7,22
			c0-0.1,0.1-0.2,0.1-0.2L7.2,52.5V54.6z M7.2,52.5v2l34.7,22c0-0.1,0.1-0.2,0.1-0.2L7.2,52.5z M7.2,52.5v2l34.7,22
			c0-0.1,0.1-0.2,0.1-0.2L7.2,52.5z M7.2,52.5v2l34.7,22c0-0.1,0.1-0.2,0.1-0.2L7.2,52.5z M7.2,52.5v2l34.7,22
			c0-0.1,0.1-0.2,0.1-0.2L7.2,52.5z M14.5,47.7c-0.6-0.1-1.2-0.2-1.9-0.4l29.9,28c0,0,0.1-0.1,0.1-0.2L14.5,47.7z M32.4,54.7
			c-0.6-0.4-1.2-0.7-1.8-1.1l13,19.9c0-0.1,0.1-0.2,0.2-0.3L32.4,54.7z M37.2,57.9c-0.5-0.4-1.1-0.8-1.6-1.2l8.5,16
			c0.1-0.1,0.1-0.2,0.2-0.3L37.2,57.9z M41.1,61.1c-0.4-0.4-0.9-0.8-1.3-1.1l4.9,11.8c0.1-0.1,0.2-0.2,0.2-0.4L41.1,61.1z M44,64
			c-0.3-0.4-0.7-0.7-1-1.1l2.4,7.8c0.1-0.2,0.2-0.3,0.3-0.5L44,64z M7.2,73.5V76l33.2,3.8c0.1-0.1,0.1-0.3,0.2-0.4L7.2,73.5z
			 M20.8,49.3c-0.6-0.2-1.3-0.4-2-0.6l24.1,26.1c0-0.1,0.1-0.1,0.1-0.2L20.8,49.3z M26.8,51.7c-0.6-0.3-1.3-0.6-1.9-0.9l18.3,23.4
			c0-0.1,0.1-0.1,0.1-0.2L26.8,51.7z M7.2,58.2v2.1l34.4,17c0-0.1,0.1-0.2,0.1-0.3L7.2,58.2z M7.2,63.5v2.2l34,12.3
			c0-0.1,0.1-0.2,0.2-0.3L7.2,63.5z M7.2,68.6V71l33.6,7.9c0.1-0.1,0.1-0.3,0.2-0.4L7.2,68.6z M46.2,66.4c-0.3-0.3-0.5-0.6-0.8-0.9
			l0.8,4c0.1-0.2,0.3-0.4,0.4-0.6L46.2,66.4z M7.2,78.2v2.6l32.8,0c0,0,0-0.1,0-0.1c0.1-0.1,0.1-0.3,0.2-0.4L7.2,78.2z"/>
		<g>
			<linearGradient id="SVGID_15_" gradientUnits="userSpaceOnUse" x1="55.4305" y1="39.0124" x2="183.647" y2="-22.6437">
				<stop  offset="0" style="stop-color:#B18044"/>
				<stop  offset="0.4403" style="stop-color:#DAB871"/>
				<stop  offset="1" style="stop-color:#F1E9C5"/>
			</linearGradient>
			<path fill="url(#SVGID_15_)" d="M90.5,8.9v35.7C82.9,45,75.7,46.9,69.2,50V39.2l-5.7,7L52.3,32.6l16.9-20.7l2.4-3H90.5z"/>
			<linearGradient id="SVGID_16_" gradientUnits="userSpaceOnUse" x1="49.2776" y1="26.306" x2="177.4941" y2="-35.35">
				<stop  offset="0" style="stop-color:#B18044"/>
				<stop  offset="0.4403" style="stop-color:#DAB871"/>
				<stop  offset="1" style="stop-color:#F1E9C5"/>
			</linearGradient>
			<path fill="url(#SVGID_16_)" d="M60,50.5L48.9,64.2L37.7,50.5l-9.2-11.3v11C22,47,14.8,45.1,7.2,44.6V8.9h18.9l2.4,3l20.3,25
				L60,50.5z"/>
		</g>
	</g>
	<g>
		<g>
			<g>
				<polygon fill="#FFFFFF" points="104,27.8 107.8,27.8 107.8,10.1 113.6,10.1 113.6,8.9 98.1,8.9 98.1,10.1 104,10.1 				"/>
				<polygon fill="#FFFFFF" points="129.4,27.8 133.2,27.8 133.2,8.9 129.4,8.9 129.4,17.6 120.3,17.6 120.3,8.9 116.6,8.9 
					116.6,27.8 120.3,27.8 120.3,18.8 129.4,18.8 				"/>
				<polygon fill="#FFFFFF" points="150.9,26.6 140.8,26.6 140.8,18.8 148.5,18.8 148.5,17.6 140.8,17.6 140.8,10.1 150.6,10.1 
					150.6,8.9 137,8.9 137,27.8 150.9,27.8 				"/>
				<polygon fill="#FFFFFF" points="108,45.4 102.1,35.3 98.1,35.3 98.1,54.3 99.4,54.3 99.4,38 106.3,49.7 107.1,49.7 113.9,38 
					113.9,54.3 117.7,54.3 117.7,35.3 113.9,35.3 				"/>
				<path fill="#FFFFFF" d="M127.6,35.3l-8.3,19h1.5l2.3-5.2h8.3l2.3,5.2h4l-8.3-19H127.6z M123.6,47.9l3.6-8.3l3.6,8.3H123.6z"/>
				<polygon fill="#FFFFFF" points="144.5,54.3 144.5,36.5 150.4,36.5 150.4,35.3 134.8,35.3 134.8,36.5 140.7,36.5 140.7,54.3 				
					"/>
				<path fill="#FFFFFF" d="M166.8,51.8l-2.1-3.8c-0.4-0.8-1.2-1.5-2.2-2c2.8-0.8,4.5-2.8,4.5-5.2c0-3.2-3.1-5.6-7.1-5.6h-7.9v19
					h3.8v-7.9h3.4c0.5,0.2,0.9,0.6,1.1,1.1l2.6,5.1c0.2,0.4,0.7,1.2,1.4,1.6l0.1,0.1h4.7l-0.9-0.6C167.8,53.4,167.2,52.6,166.8,51.8
					z M155.9,36.5h3.4c2.4,0,3.9,1.7,3.9,4.4c0,2.7-1.5,4.4-3.9,4.4h-3.4V36.5z"/>
				<rect x="170.1" y="35.3" fill="#FFFFFF" width="3.8" height="19"/>
				<polygon fill="#FFFFFF" points="186.1,44.1 192.3,35.3 190.6,35.3 185.3,43 180.3,35.3 176.1,35.3 182.7,45.4 176.5,54.3 
					178.1,54.3 183.5,46.6 188.6,54.3 192.8,54.3 				"/>
				<g>
					<path fill="#FFFFFF" d="M107.6,61.6c-5.7,0-10,4.2-10,9.8c0,5.6,4.3,9.8,10,9.8c5.7,0,10-4.2,10-9.8
						C117.6,65.8,113.3,61.6,107.6,61.6z M107.6,62.8c3.7,0,6.1,3.4,6.1,8.6c0,5.2-2.4,8.6-6.1,8.6c-3.7,0-6.1-3.4-6.1-8.6
						C101.5,66.2,103.9,62.8,107.6,62.8z"/>
					<polygon fill="#FFFFFF" points="135.4,75.6 123.2,61.9 120.8,61.9 120.8,80.9 122.1,80.9 122.1,66.1 135.3,80.9 136.7,80.9 
						136.7,61.9 135.4,61.9 					"/>
					<polygon fill="#FFFFFF" points="144.8,71.9 152.5,71.9 152.5,70.7 144.8,70.7 144.8,63.1 154.6,63.1 154.6,61.9 141,61.9 
						141,80.9 154.9,80.9 154.9,79.7 144.8,79.7 					"/>
				</g>
			</g>
		</g>
		<g>
			<g>
				
					<linearGradient id="SVGID_17_" gradientUnits="userSpaceOnUse" x1="71.0382" y1="76.5583" x2="199.2548" y2="14.9023" gradientTransform="matrix(1 0 0 1 0 -5)">
					<stop  offset="0" style="stop-color:#B18044"/>
					<stop  offset="0.4403" style="stop-color:#DAB871"/>
					<stop  offset="1" style="stop-color:#F1E9C5"/>
				</linearGradient>
				<polygon fill="url(#SVGID_17_)" points="104,27.8 107.8,27.8 107.8,10.1 113.6,10.1 113.6,8.9 98.1,8.9 98.1,10.1 104,10.1 				
					"/>
				
					<linearGradient id="SVGID_18_" gradientUnits="userSpaceOnUse" x1="71.0382" y1="76.5583" x2="199.2548" y2="14.9023" gradientTransform="matrix(1 0 0 1 0 -5)">
					<stop  offset="0" style="stop-color:#B18044"/>
					<stop  offset="0.4403" style="stop-color:#DAB871"/>
					<stop  offset="1" style="stop-color:#F1E9C5"/>
				</linearGradient>
				<polygon fill="url(#SVGID_18_)" points="129.4,27.8 133.2,27.8 133.2,8.9 129.4,8.9 129.4,17.6 120.3,17.6 120.3,8.9 116.6,8.9 
					116.6,27.8 120.3,27.8 120.3,18.8 129.4,18.8 				"/>
				
					<linearGradient id="SVGID_19_" gradientUnits="userSpaceOnUse" x1="71.0382" y1="76.5583" x2="199.2548" y2="14.9023" gradientTransform="matrix(1 0 0 1 0 -5)">
					<stop  offset="0" style="stop-color:#B18044"/>
					<stop  offset="0.4403" style="stop-color:#DAB871"/>
					<stop  offset="1" style="stop-color:#F1E9C5"/>
				</linearGradient>
				<polygon fill="url(#SVGID_19_)" points="150.9,26.6 140.8,26.6 140.8,18.8 148.5,18.8 148.5,17.6 140.8,17.6 140.8,10.1 
					150.6,10.1 150.6,8.9 137,8.9 137,27.8 150.9,27.8 				"/>
				
					<linearGradient id="SVGID_20_" gradientUnits="userSpaceOnUse" x1="71.0382" y1="76.5583" x2="199.2548" y2="14.9023" gradientTransform="matrix(1 0 0 1 0 -5)">
					<stop  offset="0" style="stop-color:#B18044"/>
					<stop  offset="0.4403" style="stop-color:#DAB871"/>
					<stop  offset="1" style="stop-color:#F1E9C5"/>
				</linearGradient>
				<polygon fill="url(#SVGID_20_)" points="108,45.4 102.1,35.3 98.1,35.3 98.1,54.3 99.4,54.3 99.4,38 106.3,49.7 107.1,49.7 
					113.9,38 113.9,54.3 117.7,54.3 117.7,35.3 113.9,35.3 				"/>
				
					<linearGradient id="SVGID_21_" gradientUnits="userSpaceOnUse" x1="71.0382" y1="76.5583" x2="199.2548" y2="14.9023" gradientTransform="matrix(1 0 0 1 0 -5)">
					<stop  offset="0" style="stop-color:#B18044"/>
					<stop  offset="0.4403" style="stop-color:#DAB871"/>
					<stop  offset="1" style="stop-color:#F1E9C5"/>
				</linearGradient>
				<path fill="url(#SVGID_21_)" d="M127.6,35.3l-8.3,19h1.5l2.3-5.2h8.3l2.3,5.2h4l-8.3-19H127.6z M123.6,47.9l3.6-8.3l3.6,8.3
					H123.6z"/>
				
					<linearGradient id="SVGID_22_" gradientUnits="userSpaceOnUse" x1="71.0382" y1="76.5583" x2="199.2548" y2="14.9023" gradientTransform="matrix(1 0 0 1 0 -5)">
					<stop  offset="0" style="stop-color:#B18044"/>
					<stop  offset="0.4403" style="stop-color:#DAB871"/>
					<stop  offset="1" style="stop-color:#F1E9C5"/>
				</linearGradient>
				<polygon fill="url(#SVGID_22_)" points="144.5,54.3 144.5,36.5 150.4,36.5 150.4,35.3 134.8,35.3 134.8,36.5 140.7,36.5 
					140.7,54.3 				"/>
				
					<linearGradient id="SVGID_23_" gradientUnits="userSpaceOnUse" x1="71.0382" y1="76.5583" x2="199.2548" y2="14.9023" gradientTransform="matrix(1 0 0 1 0 -5)">
					<stop  offset="0" style="stop-color:#B18044"/>
					<stop  offset="0.4403" style="stop-color:#DAB871"/>
					<stop  offset="1" style="stop-color:#F1E9C5"/>
				</linearGradient>
				<path fill="url(#SVGID_23_)" d="M166.8,51.8l-2.1-3.8c-0.4-0.8-1.2-1.5-2.2-2c2.8-0.8,4.5-2.8,4.5-5.2c0-3.2-3.1-5.6-7.1-5.6
					h-7.9v19h3.8v-7.9h3.4c0.5,0.2,0.9,0.6,1.1,1.1l2.6,5.1c0.2,0.4,0.7,1.2,1.4,1.6l0.1,0.1h4.7l-0.9-0.6
					C167.8,53.4,167.2,52.6,166.8,51.8z M155.9,36.5h3.4c2.4,0,3.9,1.7,3.9,4.4c0,2.7-1.5,4.4-3.9,4.4h-3.4V36.5z"/>
				
					<linearGradient id="SVGID_24_" gradientUnits="userSpaceOnUse" x1="71.0382" y1="76.5583" x2="199.2548" y2="14.9023" gradientTransform="matrix(1 0 0 1 0 -5)">
					<stop  offset="0" style="stop-color:#B18044"/>
					<stop  offset="0.4403" style="stop-color:#DAB871"/>
					<stop  offset="1" style="stop-color:#F1E9C5"/>
				</linearGradient>
				<rect x="170.1" y="35.3" fill="url(#SVGID_24_)" width="3.8" height="19"/>
				
					<linearGradient id="SVGID_25_" gradientUnits="userSpaceOnUse" x1="71.0382" y1="76.5583" x2="199.2548" y2="14.9023" gradientTransform="matrix(1 0 0 1 0 -5)">
					<stop  offset="0" style="stop-color:#B18044"/>
					<stop  offset="0.4403" style="stop-color:#DAB871"/>
					<stop  offset="1" style="stop-color:#F1E9C5"/>
				</linearGradient>
				<polygon fill="url(#SVGID_25_)" points="186.1,44.1 192.3,35.3 190.6,35.3 185.3,43 180.3,35.3 176.1,35.3 182.7,45.4 
					176.5,54.3 178.1,54.3 183.5,46.6 188.6,54.3 192.8,54.3 				"/>
				<g>
					
						<linearGradient id="SVGID_26_" gradientUnits="userSpaceOnUse" x1="71.0382" y1="76.5583" x2="199.2548" y2="14.9023" gradientTransform="matrix(1 0 0 1 0 -5)">
						<stop  offset="0" style="stop-color:#B18044"/>
						<stop  offset="0.4403" style="stop-color:#DAB871"/>
						<stop  offset="1" style="stop-color:#F1E9C5"/>
					</linearGradient>
					<path fill="url(#SVGID_26_)" d="M107.6,61.6c-5.7,0-10,4.2-10,9.8c0,5.6,4.3,9.8,10,9.8c5.7,0,10-4.2,10-9.8
						C117.6,65.8,113.3,61.6,107.6,61.6z M107.6,62.8c3.7,0,6.1,3.4,6.1,8.6c0,5.2-2.4,8.6-6.1,8.6c-3.7,0-6.1-3.4-6.1-8.6
						C101.5,66.2,103.9,62.8,107.6,62.8z"/>
					
						<linearGradient id="SVGID_27_" gradientUnits="userSpaceOnUse" x1="71.0382" y1="76.5583" x2="199.2548" y2="14.9023" gradientTransform="matrix(1 0 0 1 0 -5)">
						<stop  offset="0" style="stop-color:#B18044"/>
						<stop  offset="0.4403" style="stop-color:#DAB871"/>
						<stop  offset="1" style="stop-color:#F1E9C5"/>
					</linearGradient>
					<polygon fill="url(#SVGID_27_)" points="135.4,75.6 123.2,61.9 120.8,61.9 120.8,80.9 122.1,80.9 122.1,66.1 135.3,80.9 
						136.7,80.9 136.7,61.9 135.4,61.9 					"/>
					
						<linearGradient id="SVGID_28_" gradientUnits="userSpaceOnUse" x1="71.0382" y1="76.5583" x2="199.2548" y2="14.9023" gradientTransform="matrix(1 0 0 1 0 -5)">
						<stop  offset="0" style="stop-color:#B18044"/>
						<stop  offset="0.4403" style="stop-color:#DAB871"/>
						<stop  offset="1" style="stop-color:#F1E9C5"/>
					</linearGradient>
					<polygon fill="url(#SVGID_28_)" points="144.8,71.9 152.5,71.9 152.5,70.7 144.8,70.7 144.8,63.1 154.6,63.1 154.6,61.9 
						141,61.9 141,80.9 154.9,80.9 154.9,79.7 144.8,79.7 					"/>
				</g>
			</g>
		</g>
	</g>
</g>
</svg>
