<?xml version="1.0" encoding="utf-8"?>
<!-- Generator: Adobe Illustrator 23.0.1, SVG Export Plug-In . SVG Version: 6.00 Build 0)  -->
<svg version="1.1" id="Layer_1" xmlns="http://www.w3.org/2000/svg" xmlns:xlink="http://www.w3.org/1999/xlink" x="0px" y="0px"
	 width="200px" height="90px" viewBox="0 0 200 90" style="enable-background:new 0 0 200 90;" xml:space="preserve">
<g>
	<g>
		<g>
			<g>
				<linearGradient id="SVGID_1_" gradientUnits="userSpaceOnUse" x1="66.1298" y1="61.6687" x2="194.393" y2="-9.816126e-03">
					<stop  offset="0" style="stop-color:#B18044"/>
					<stop  offset="1" style="stop-color:#DAB871"/>
				</linearGradient>
				<path style="fill:url(#SVGID_1_);" d="M41.7,81h0.8c8.2-18.9,26.5-32.4,48-33.7v-0.7C68.5,48,49.9,61.8,41.7,81z"/>
				<linearGradient id="SVGID_2_" gradientUnits="userSpaceOnUse" x1="67.0067" y1="63.4922" x2="195.2699" y2="1.8137">
					<stop  offset="0" style="stop-color:#B18044"/>
					<stop  offset="1" style="stop-color:#DAB871"/>
				</linearGradient>
				<path style="fill:url(#SVGID_2_);" d="M44.7,81h0.9c7.9-17.3,24.9-29.6,44.9-30.8v-0.8C70.1,50.6,52.7,63.3,44.7,81z"/>
				<linearGradient id="SVGID_3_" gradientUnits="userSpaceOnUse" x1="67.8877" y1="65.3245" x2="196.151" y2="3.646">
					<stop  offset="0" style="stop-color:#B18044"/>
					<stop  offset="1" style="stop-color:#DAB871"/>
				</linearGradient>
				<path style="fill:url(#SVGID_3_);" d="M47.6,81h1.1c7.7-15.7,23.4-26.8,41.7-28v-1C71.6,53.3,55.4,64.8,47.6,81z"/>
				<linearGradient id="SVGID_4_" gradientUnits="userSpaceOnUse" x1="68.7726" y1="67.1645" x2="197.0358" y2="5.486">
					<stop  offset="0" style="stop-color:#B18044"/>
					<stop  offset="1" style="stop-color:#DAB871"/>
				</linearGradient>
				<path style="fill:url(#SVGID_4_);" d="M50.7,81H52C59.4,67,73.8,57.1,90.5,55.9v-1.1C73.1,56,58.2,66.3,50.7,81z"/>
				<linearGradient id="SVGID_5_" gradientUnits="userSpaceOnUse" x1="69.6612" y1="69.0126" x2="197.9245" y2="7.3341">
					<stop  offset="0" style="stop-color:#B18044"/>
					<stop  offset="1" style="stop-color:#DAB871"/>
				</linearGradient>
				<path style="fill:url(#SVGID_5_);" d="M53.7,81h1.5c7.2-12.4,20.2-21.1,35.3-22.3v-1.3C74.6,58.6,61,67.9,53.7,81z"/>
				<linearGradient id="SVGID_6_" gradientUnits="userSpaceOnUse" x1="70.5585" y1="70.8783" x2="198.8217" y2="9.1999">
					<stop  offset="0" style="stop-color:#B18044"/>
					<stop  offset="1" style="stop-color:#DAB871"/>
				</linearGradient>
				<path style="fill:url(#SVGID_6_);" d="M56.8,81h1.7C65.3,70.2,77,62.7,90.5,61.6v-1.4C76.2,61.3,63.8,69.4,56.8,81z"/>
				<linearGradient id="SVGID_7_" gradientUnits="userSpaceOnUse" x1="71.4634" y1="72.7601" x2="199.7266" y2="11.0816">
					<stop  offset="0" style="stop-color:#B18044"/>
					<stop  offset="1" style="stop-color:#DAB871"/>
				</linearGradient>
				<path style="fill:url(#SVGID_7_);" d="M60,81h1.9c6.4-9.2,16.7-15.5,28.5-16.6v-1.6C77.7,63.9,66.7,70.9,60,81z"/>
				<linearGradient id="SVGID_8_" gradientUnits="userSpaceOnUse" x1="72.3791" y1="74.6645" x2="200.6424" y2="12.986">
					<stop  offset="0" style="stop-color:#B18044"/>
					<stop  offset="1" style="stop-color:#DAB871"/>
				</linearGradient>
				<path style="fill:url(#SVGID_8_);" d="M63.3,81h2.2c5.9-7.6,14.9-12.8,25-13.7v-1.7C79.3,66.6,69.5,72.4,63.3,81z"/>
				<linearGradient id="SVGID_9_" gradientUnits="userSpaceOnUse" x1="73.3113" y1="76.6031" x2="201.5746" y2="14.9246">
					<stop  offset="0" style="stop-color:#B18044"/>
					<stop  offset="1" style="stop-color:#DAB871"/>
				</linearGradient>
				<path style="fill:url(#SVGID_9_);" d="M66.7,81h2.5c5.4-6,12.9-10,21.3-10.9v-1.9C80.9,69.2,72.5,74,66.7,81z"/>
				<linearGradient id="SVGID_10_" gradientUnits="userSpaceOnUse" x1="74.3292" y1="78.7197" x2="202.5924" y2="17.0412">
					<stop  offset="0" style="stop-color:#B18044"/>
					<stop  offset="1" style="stop-color:#DAB871"/>
				</linearGradient>
				<path style="fill:url(#SVGID_10_);" d="M70.3,81h2.9c4.6-4.3,10.6-7.3,17.3-8V71C82.5,71.8,75.5,75.5,70.3,81z"/>
				<linearGradient id="SVGID_11_" gradientUnits="userSpaceOnUse" x1="75.4716" y1="81.0955" x2="203.7348" y2="19.417">
					<stop  offset="0" style="stop-color:#B18044"/>
					<stop  offset="1" style="stop-color:#DAB871"/>
				</linearGradient>
				<path style="fill:url(#SVGID_11_);" d="M74.1,81h3.5c3.7-2.7,8.1-4.6,12.9-5.2v-2.2C84.2,74.4,78.6,77.1,74.1,81z"/>
				<linearGradient id="SVGID_12_" gradientUnits="userSpaceOnUse" x1="76.6174" y1="83.4781" x2="204.8806" y2="21.7996">
					<stop  offset="0" style="stop-color:#B18044"/>
					<stop  offset="1" style="stop-color:#DAB871"/>
				</linearGradient>
				<path style="fill:url(#SVGID_12_);" d="M78.5,81h4.6c2.3-1.1,4.8-1.9,7.4-2.3v-2.4C86.1,77,82,78.6,78.5,81z"/>
				<linearGradient id="SVGID_13_" gradientUnits="userSpaceOnUse" x1="77.6473" y1="85.6199" x2="205.9106" y2="23.9415">
					<stop  offset="0" style="stop-color:#B18044"/>
					<stop  offset="1" style="stop-color:#DAB871"/>
				</linearGradient>
				<path style="fill:url(#SVGID_13_);" d="M83.9,81h6.6v-1.9C88.2,79.4,85.9,80.1,83.9,81z"/>
			</g>
		</g>
		<linearGradient id="SVGID_14_" gradientUnits="userSpaceOnUse" x1="59.0289" y1="46.9021" x2="187.2921" y2="-14.7764">
			<stop  offset="0" style="stop-color:#B18044"/>
			<stop  offset="1" style="stop-color:#DAB871"/>
		</linearGradient>
		<path style="fill:url(#SVGID_14_);" d="M7.1,52.8v2l34.7,22c0-0.1,0.1-0.2,0.1-0.2L7.1,52.8z M7.1,52.8v2l34.7,22
			c0-0.1,0.1-0.2,0.1-0.2L7.1,52.8z M7.1,52.8v2l34.7,22c0-0.1,0.1-0.2,0.1-0.2L7.1,52.8z M7.1,52.8v2l34.7,22
			c0-0.1,0.1-0.2,0.1-0.2L7.1,52.8z M7.1,52.8v2l34.7,22c0-0.1,0.1-0.2,0.1-0.2L7.1,52.8z M7.1,46.9v1.9l35.1,27.4
			c0-0.1,0.1-0.1,0.1-0.2L7.1,46.9z M7.1,54.8l34.7,22c0-0.1,0.1-0.2,0.1-0.2L7.1,52.8V54.8z M7.1,52.8v2l34.7,22
			c0-0.1,0.1-0.2,0.1-0.2L7.1,52.8z M7.1,52.8v2l34.7,22c0-0.1,0.1-0.2,0.1-0.2L7.1,52.8z M7.1,52.8v2l34.7,22
			c0-0.1,0.1-0.2,0.1-0.2L7.1,52.8z M7.1,52.8v2l34.7,22c0-0.1,0.1-0.2,0.1-0.2L7.1,52.8z M14.5,47.9c-0.6-0.1-1.2-0.2-1.9-0.4
			l29.9,28c0,0,0.1-0.1,0.1-0.2L14.5,47.9z M32.3,54.9c-0.6-0.4-1.2-0.7-1.8-1.1l13,19.9c0-0.1,0.1-0.2,0.2-0.3L32.3,54.9z
			 M37.1,58.1c-0.5-0.4-1.1-0.8-1.6-1.2L44,73c0.1-0.1,0.1-0.2,0.2-0.3L37.1,58.1z M41,61.3c-0.4-0.4-0.9-0.8-1.3-1.1L44.6,72
			c0.1-0.1,0.2-0.2,0.2-0.4L41,61.3z M44,64.2c-0.3-0.4-0.7-0.7-1-1.1l2.4,7.8c0.1-0.2,0.2-0.3,0.3-0.5L44,64.2z M7.1,73.7v2.5
			l33.2,3.8c0.1-0.1,0.1-0.3,0.2-0.4L7.1,73.7z M20.7,49.5c-0.6-0.2-1.3-0.4-2-0.6L42.8,75c0-0.1,0.1-0.1,0.1-0.2L20.7,49.5z
			 M26.8,51.9c-0.6-0.3-1.3-0.6-1.9-0.9l18.3,23.4c0-0.1,0.1-0.1,0.1-0.2L26.8,51.9z M7.1,58.4v2.1l34.4,17c0-0.1,0.1-0.2,0.1-0.3
			L7.1,58.4z M7.1,63.7V66l34,12.3c0-0.1,0.1-0.2,0.2-0.3L7.1,63.7z M7.1,68.9v2.3l33.6,8c0.1-0.1,0.1-0.3,0.2-0.4L7.1,68.9z
			 M46.1,66.6c-0.3-0.3-0.5-0.6-0.8-0.9l0.8,4c0.1-0.2,0.3-0.4,0.4-0.6L46.1,66.6z M7.1,78.4V81L40,81c0,0,0-0.1,0-0.1
			c0.1-0.1,0.1-0.3,0.2-0.4L7.1,78.4z"/>
		<g>
			<linearGradient id="SVGID_15_" gradientUnits="userSpaceOnUse" x1="55.3891" y1="39.244" x2="183.6523" y2="-22.4345">
				<stop  offset="0" style="stop-color:#B18044"/>
				<stop  offset="1" style="stop-color:#DAB871"/>
			</linearGradient>
			<path style="fill:url(#SVGID_15_);" d="M90.5,9.1v35.7c-7.6,0.5-14.8,2.4-21.3,5.5V39.4l-5.7,7L52.3,32.8l16.9-20.7l2.4-3H90.5z"
				/>
			<linearGradient id="SVGID_16_" gradientUnits="userSpaceOnUse" x1="49.2339" y1="26.533" x2="177.4972" y2="-35.1455">
				<stop  offset="0" style="stop-color:#B18044"/>
				<stop  offset="1" style="stop-color:#DAB871"/>
			</linearGradient>
			<path style="fill:url(#SVGID_16_);" d="M60,50.7L48.8,64.4L37.7,50.7l-9.2-11.3v11c-6.5-3.1-13.7-5.1-21.3-5.6V9.1H26l2.4,3
				l20.3,25L60,50.7z"/>
		</g>
	</g>
	<g>
		<g>
			<g>
				<polygon style="fill:#FFFFFF;" points="104,28 107.7,28 107.7,10.3 113.6,10.3 113.6,9.1 98.1,9.1 98.1,10.3 104,10.3 				"/>
				<polygon style="fill:#FFFFFF;" points="129.4,28 133.2,28 133.2,9.1 129.4,9.1 129.4,17.8 120.3,17.8 120.3,9.1 116.5,9.1 
					116.5,28 120.3,28 120.3,19 129.4,19 				"/>
				<polygon style="fill:#FFFFFF;" points="150.8,26.9 140.8,26.9 140.8,19 148.5,19 148.5,17.8 140.8,17.8 140.8,10.3 150.6,10.3 
					150.6,9.1 137,9.1 137,28 150.8,28 				"/>
				<polygon style="fill:#FFFFFF;" points="108,45.6 102.1,35.5 98.1,35.5 98.1,54.5 99.4,54.5 99.4,38.2 106.2,49.9 107,49.9 
					113.9,38.2 113.9,54.5 117.7,54.5 117.7,35.5 113.9,35.5 				"/>
				<path style="fill:#FFFFFF;" d="M127.6,35.5l-8.3,19h1.5l2.3-5.2h8.3l2.3,5.2h4l-8.3-19H127.6z M123.6,48.1l3.6-8.3l3.6,8.3
					H123.6z"/>
				<polygon style="fill:#FFFFFF;" points="144.5,54.5 144.5,36.7 150.4,36.7 150.4,35.5 134.8,35.5 134.8,36.7 140.7,36.7 
					140.7,54.5 				"/>
				<path style="fill:#FFFFFF;" d="M166.8,52.1l-2.1-3.8c-0.4-0.8-1.2-1.5-2.2-2c2.8-0.8,4.5-2.8,4.5-5.2c0-3.2-3.1-5.6-7.1-5.6
					h-7.9v19h3.8v-7.9h3.4c0.5,0.2,0.9,0.6,1.1,1.1l2.6,5.1c0.2,0.4,0.7,1.2,1.4,1.6l0.1,0.1h4.7l-0.9-0.6
					C167.8,53.6,167.2,52.9,166.8,52.1z M155.9,36.7h3.4c2.4,0,3.9,1.7,3.9,4.4s-1.5,4.4-3.9,4.4h-3.4V36.7z"/>
				<rect x="170.1" y="35.5" style="fill:#FFFFFF;" width="3.8" height="19"/>
				<polygon style="fill:#FFFFFF;" points="186.1,44.4 192.3,35.5 190.6,35.5 185.3,43.2 180.3,35.5 176.1,35.5 182.7,45.6 
					176.5,54.5 178.1,54.5 183.5,46.8 188.6,54.5 192.8,54.5 				"/>
				<g>
					<path style="fill:#FFFFFF;" d="M107.6,61.9c-5.7,0-10,4.2-10,9.8s4.3,9.8,10,9.8c5.7,0,10-4.2,10-9.8S113.3,61.9,107.6,61.9z
						 M107.6,63.1c3.7,0,6.1,3.4,6.1,8.6c0,5.2-2.4,8.6-6.1,8.6c-3.7,0-6.1-3.4-6.1-8.6C101.5,66.4,103.8,63.1,107.6,63.1z"/>
					<polygon style="fill:#FFFFFF;" points="135.4,75.8 123.2,62.1 120.8,62.1 120.8,81.1 122.1,81.1 122.1,66.3 135.3,81.1 
						136.7,81.1 136.7,62.1 135.4,62.1 					"/>
					<polygon style="fill:#FFFFFF;" points="144.8,72.1 152.5,72.1 152.5,70.9 144.8,70.9 144.8,63.3 154.6,63.3 154.6,62.1 
						141,62.1 141,81.1 154.9,81.1 154.9,79.9 144.8,79.9 					"/>
				</g>
			</g>
		</g>
		<g>
			<g>
				<linearGradient id="SVGID_17_" gradientUnits="userSpaceOnUse" x1="71.0025" y1="71.8018" x2="199.2658" y2="10.1233">
					<stop  offset="0" style="stop-color:#B18044"/>
					<stop  offset="1" style="stop-color:#DAB871"/>
				</linearGradient>
				<polygon style="fill:url(#SVGID_17_);" points="104,28 107.7,28 107.7,10.3 113.6,10.3 113.6,9.1 98.1,9.1 98.1,10.3 104,10.3 
									"/>
				<linearGradient id="SVGID_18_" gradientUnits="userSpaceOnUse" x1="71.0025" y1="71.8018" x2="199.2658" y2="10.1233">
					<stop  offset="0" style="stop-color:#B18044"/>
					<stop  offset="1" style="stop-color:#DAB871"/>
				</linearGradient>
				<polygon style="fill:url(#SVGID_18_);" points="129.4,28 133.2,28 133.2,9.1 129.4,9.1 129.4,17.8 120.3,17.8 120.3,9.1 
					116.5,9.1 116.5,28 120.3,28 120.3,19 129.4,19 				"/>
				<linearGradient id="SVGID_19_" gradientUnits="userSpaceOnUse" x1="71.0025" y1="71.8018" x2="199.2658" y2="10.1233">
					<stop  offset="0" style="stop-color:#B18044"/>
					<stop  offset="1" style="stop-color:#DAB871"/>
				</linearGradient>
				<polygon style="fill:url(#SVGID_19_);" points="150.8,26.9 140.8,26.9 140.8,19 148.5,19 148.5,17.8 140.8,17.8 140.8,10.3 
					150.6,10.3 150.6,9.1 137,9.1 137,28 150.8,28 				"/>
				<linearGradient id="SVGID_20_" gradientUnits="userSpaceOnUse" x1="71.0025" y1="71.8018" x2="199.2658" y2="10.1233">
					<stop  offset="0" style="stop-color:#B18044"/>
					<stop  offset="1" style="stop-color:#DAB871"/>
				</linearGradient>
				<polygon style="fill:url(#SVGID_20_);" points="108,45.6 102.1,35.5 98.1,35.5 98.1,54.5 99.4,54.5 99.4,38.2 106.2,49.9 
					107,49.9 113.9,38.2 113.9,54.5 117.7,54.5 117.7,35.5 113.9,35.5 				"/>
				<linearGradient id="SVGID_21_" gradientUnits="userSpaceOnUse" x1="71.0025" y1="71.8018" x2="199.2658" y2="10.1233">
					<stop  offset="0" style="stop-color:#B18044"/>
					<stop  offset="1" style="stop-color:#DAB871"/>
				</linearGradient>
				<path style="fill:url(#SVGID_21_);" d="M127.6,35.5l-8.3,19h1.5l2.3-5.2h8.3l2.3,5.2h4l-8.3-19H127.6z M123.6,48.1l3.6-8.3
					l3.6,8.3H123.6z"/>
				<linearGradient id="SVGID_22_" gradientUnits="userSpaceOnUse" x1="71.0025" y1="71.8018" x2="199.2658" y2="10.1233">
					<stop  offset="0" style="stop-color:#B18044"/>
					<stop  offset="1" style="stop-color:#DAB871"/>
				</linearGradient>
				<polygon style="fill:url(#SVGID_22_);" points="144.5,54.5 144.5,36.7 150.4,36.7 150.4,35.5 134.8,35.5 134.8,36.7 140.7,36.7 
					140.7,54.5 				"/>
				<linearGradient id="SVGID_23_" gradientUnits="userSpaceOnUse" x1="71.0025" y1="71.8018" x2="199.2658" y2="10.1233">
					<stop  offset="0" style="stop-color:#B18044"/>
					<stop  offset="1" style="stop-color:#DAB871"/>
				</linearGradient>
				<path style="fill:url(#SVGID_23_);" d="M166.8,52.1l-2.1-3.8c-0.4-0.8-1.2-1.5-2.2-2c2.8-0.8,4.5-2.8,4.5-5.2
					c0-3.2-3.1-5.6-7.1-5.6h-7.9v19h3.8v-7.9h3.4c0.5,0.2,0.9,0.6,1.1,1.1l2.6,5.1c0.2,0.4,0.7,1.2,1.4,1.6l0.1,0.1h4.7l-0.9-0.6
					C167.8,53.6,167.2,52.9,166.8,52.1z M155.9,36.7h3.4c2.4,0,3.9,1.7,3.9,4.4s-1.5,4.4-3.9,4.4h-3.4V36.7z"/>
				<linearGradient id="SVGID_24_" gradientUnits="userSpaceOnUse" x1="71.0025" y1="71.8018" x2="199.2658" y2="10.1233">
					<stop  offset="0" style="stop-color:#B18044"/>
					<stop  offset="1" style="stop-color:#DAB871"/>
				</linearGradient>
				<rect x="170.1" y="35.5" style="fill:url(#SVGID_24_);" width="3.8" height="19"/>
				<linearGradient id="SVGID_25_" gradientUnits="userSpaceOnUse" x1="71.0025" y1="71.8018" x2="199.2658" y2="10.1233">
					<stop  offset="0" style="stop-color:#B18044"/>
					<stop  offset="1" style="stop-color:#DAB871"/>
				</linearGradient>
				<polygon style="fill:url(#SVGID_25_);" points="186.1,44.4 192.3,35.5 190.6,35.5 185.3,43.2 180.3,35.5 176.1,35.5 182.7,45.6 
					176.5,54.5 178.1,54.5 183.5,46.8 188.6,54.5 192.8,54.5 				"/>
				<g>
					<linearGradient id="SVGID_26_" gradientUnits="userSpaceOnUse" x1="71.0025" y1="71.8018" x2="199.2658" y2="10.1233">
						<stop  offset="0" style="stop-color:#B18044"/>
						<stop  offset="1" style="stop-color:#DAB871"/>
					</linearGradient>
					<path style="fill:url(#SVGID_26_);" d="M107.6,61.9c-5.7,0-10,4.2-10,9.8s4.3,9.8,10,9.8c5.7,0,10-4.2,10-9.8
						S113.3,61.9,107.6,61.9z M107.6,63.1c3.7,0,6.1,3.4,6.1,8.6c0,5.2-2.4,8.6-6.1,8.6c-3.7,0-6.1-3.4-6.1-8.6
						C101.5,66.4,103.8,63.1,107.6,63.1z"/>
					<linearGradient id="SVGID_27_" gradientUnits="userSpaceOnUse" x1="71.0025" y1="71.8018" x2="199.2658" y2="10.1233">
						<stop  offset="0" style="stop-color:#B18044"/>
						<stop  offset="1" style="stop-color:#DAB871"/>
					</linearGradient>
					<polygon style="fill:url(#SVGID_27_);" points="135.4,75.8 123.2,62.1 120.8,62.1 120.8,81.1 122.1,81.1 122.1,66.3 
						135.3,81.1 136.7,81.1 136.7,62.1 135.4,62.1 					"/>
					<linearGradient id="SVGID_28_" gradientUnits="userSpaceOnUse" x1="71.0025" y1="71.8018" x2="199.2658" y2="10.1233">
						<stop  offset="0" style="stop-color:#B18044"/>
						<stop  offset="1" style="stop-color:#DAB871"/>
					</linearGradient>
					<polygon style="fill:url(#SVGID_28_);" points="144.8,72.1 152.5,72.1 152.5,70.9 144.8,70.9 144.8,63.3 154.6,63.3 
						154.6,62.1 141,62.1 141,81.1 154.9,81.1 154.9,79.9 144.8,79.9 					"/>
				</g>
			</g>
		</g>
	</g>
</g>
</svg>
