<?xml version="1.0" encoding="utf-8"?>
<!-- Generator: Adobe Illustrator 23.0.1, SVG Export Plug-In . SVG Version: 6.00 Build 0)  -->
<svg version="1.1" id="Layer_1" xmlns="http://www.w3.org/2000/svg" xmlns:xlink="http://www.w3.org/1999/xlink" x="0px" y="0px"
	 width="80px" height="80px" viewBox="0 0 80 80" style="enable-background:new 0 0 80 80;" xml:space="preserve">
<style type="text/css">
	.st0{opacity:0.2;fill:#231F20;enable-background:new    ;}
	.st1{fill:url(#SVGID_1_);}
	.st2{fill:url(#XMLID_2_);}
	.st3{fill:#FFFFFF;}
</style>
<path id="XMLID_20_" class="st0" d="M43.3,69c6.3,0.6,12-1.5,17.9-4.9C75.6,56,80.6,37.7,72.5,23.4C64.4,8.9,46.1,3.8,31.7,12
	c-8.5,4.8-12.2,13.9-14.9,22.4L8.1,55.8l16.4,5.6C25.8,61.8,33.6,68,43.3,69z"/>
<linearGradient id="SVGID_1_" gradientUnits="userSpaceOnUse" x1="18.6186" y1="-59.4467" x2="81.2186" y2="-59.4467" gradientTransform="matrix(0.4941 0.8694 -0.8694 0.4941 -36.442 23.6335)">
	<stop  offset="5.617980e-03" style="stop-color:#A9824E"/>
	<stop  offset="0.256" style="stop-color:#D5BA7B"/>
	<stop  offset="0.4949" style="stop-color:#F3F4CF"/>
	<stop  offset="0.7865" style="stop-color:#D5BA7B"/>
	<stop  offset="1" style="stop-color:#A9824E"/>
</linearGradient>
<path class="st1" d="M60.1,62.3c15-8.5,20.3-27.6,11.7-42.7S44.2-0.7,29.1,7.8c-11,6.2-16.7,18-15.7,29.8C11,46.1,8,55.7,8,55.7
	s9.5,2.2,17.7,4.4C35.4,67.4,48.9,68.6,60.1,62.3z"/>
<linearGradient id="XMLID_2_" gradientUnits="userSpaceOnUse" x1="66.3633" y1="-44.8277" x2="34.9487" y2="-82.974" gradientTransform="matrix(0.4941 0.8694 -0.8694 0.4941 -36.442 23.6335)">
	<stop  offset="5.617980e-03" style="stop-color:#A9824E"/>
	<stop  offset="1" style="stop-color:#D5BA7B"/>
</linearGradient>
<path id="XMLID_25_" class="st2" d="M37.6,60.4C23.4,56.5,15.1,41.9,19,27.7S37.6,5.2,51.7,9.1C65.9,13,74.2,27.7,70.3,41.8
	C66.5,56,51.8,64.3,37.6,60.4"/>
<g>
	<path class="st3" d="M41.4,18.7h-1.8v6.4h-1.5v-6.4h-1.8v-1.1h5.1V18.7z"/>
	<path class="st3" d="M47.5,25H46v-3.1h-2.5V25H42v-7.5h1.5v3.2H46v-3.2h1.5V25z"/>
	<path class="st3" d="M52.5,21.7h-2.3v2.2H53V25h-4.3v-7.5H53v1.1h-2.8v1.9h2.3V21.7z"/>
	<path class="st3" d="M32.1,35.5L32.1,35.5l1.5-5.6h1.9v7.5H34v-4.8l0,0l-1.4,4.8h-1l-1.4-4.7l0,0v4.7h-1.5v-7.5h1.9L32.1,35.5z"/>
	<path class="st3" d="M40.1,35.9h-1.9l-0.4,1.6h-1.6l2.2-7.5h1.5l2.2,7.5h-1.6L40.1,35.9z M38.4,34.7h1.3l-0.6-2.4l0,0L38.4,34.7z"
		/>
	<path class="st3" d="M46.4,31.1h-1.8v6.4h-1.5v-6.4h-1.8V30h5.1V31.1z"/>
	<path class="st3" d="M48.6,34.5v3h-1.5V30h2.3c0.8,0,1.4,0.2,1.8,0.6c0.4,0.4,0.7,0.9,0.7,1.6c0,0.4-0.1,0.7-0.3,1
		s-0.4,0.5-0.8,0.7c0.4,0.1,0.7,0.3,0.9,0.6s0.3,0.7,0.3,1.1v0.5c0,0.2,0,0.4,0.1,0.7c0.1,0.2,0.1,0.4,0.3,0.5v0.1h-1.5
		c-0.1-0.1-0.2-0.3-0.2-0.5c0-0.3-0.1-0.5-0.1-0.8v-0.5c0-0.4-0.1-0.7-0.2-0.9c-0.2-0.2-0.4-0.3-0.7-0.3h-1.1V34.5z M48.6,33.3h0.8
		c0.3,0,0.6-0.1,0.7-0.3c0.2-0.2,0.2-0.5,0.2-0.8c0-0.4-0.1-0.6-0.2-0.8c-0.2-0.2-0.4-0.3-0.7-0.3h-0.8V33.3z"/>
	<path class="st3" d="M54.6,37.5h-1.5V30h1.5V37.5z"/>
	<path class="st3" d="M58.3,32.6L58.3,32.6l1.1-2.7h1.7l-1.9,3.7l2,3.8h-1.8l-1.1-2.7l0,0l-1.1,2.7h-1.8l1.9-3.8l-1.9-3.7h1.7
		L58.3,32.6z"/>
	<path class="st3" d="M41.6,47.1c0,0.9-0.3,1.6-0.8,2.2c-0.5,0.5-1.2,0.8-2,0.8s-1.5-0.3-2-0.8S36,48,36,47.1v-1.8
		c0-0.9,0.3-1.6,0.8-2.2c0.5-0.5,1.2-0.8,2-0.8s1.5,0.3,2,0.8s0.8,1.3,0.8,2.2V47.1z M40.1,45.3c0-0.6-0.1-1-0.3-1.3s-0.6-0.5-1-0.5
		s-0.7,0.2-1,0.5c-0.2,0.3-0.3,0.8-0.3,1.3v1.8c0,0.6,0.1,1,0.3,1.4c0.2,0.3,0.5,0.5,1,0.5c0.4,0,0.7-0.2,1-0.5
		c0.2-0.3,0.3-0.8,0.3-1.4V45.3z"/>
	<path class="st3" d="M48.1,50h-1.5l-2.4-4.8l0,0V50h-1.5v-7.6h1.5l2.4,4.8l0,0v-4.8h1.5V50z"/>
	<path class="st3" d="M53.1,46.6h-2.3v2.2h2.8v1.1h-4.3v-7.5h4.3v1.1h-2.8v1.9h2.3V46.6z"/>
</g>
</svg>
