<?xml version="1.0" encoding="utf-8"?>
<!-- Generator: Adobe Illustrator 23.0.1, SVG Export Plug-In . SVG Version: 6.00 Build 0)  -->
<svg version="1.1" id="Layer_1" xmlns="http://www.w3.org/2000/svg" xmlns:xlink="http://www.w3.org/1999/xlink" x="0px" y="0px"
	 width="283.5px" height="141.7px" viewBox="0 0 283.5 141.7" style="enable-background:new 0 0 283.5 141.7;" xml:space="preserve"
	>
<linearGradient id="SVGID_1_" gradientUnits="userSpaceOnUse" x1="11.2" y1="51.45" x2="272.4" y2="51.45" gradientTransform="matrix(1 0 0 -1 0 142)">
	<stop  offset="0" style="stop-color:#C5902C"/>
	<stop  offset="1" style="stop-color:#FFDE77"/>
</linearGradient>
<path style="fill:url(#SVGID_1_);" d="M227.5,58.9c15.4,5.3,24.7,12,24.7,19.3c0,16.9-49.5,26.2-110.5,26.2S31.3,95,31.3,78.2
	c0-7.3,9.3-14,24.7-19.3c-27.5,6.6-44.8,16.4-44.8,27.2c0,20,58.5,36.1,130.6,36.1S272.4,106,272.4,86.1
	C272.3,75.3,254.9,65.5,227.5,58.9z"/>
<g>
	
		<linearGradient id="SVGID_2_" gradientUnits="userSpaceOnUse" x1="57.5236" y1="92.5173" x2="229.9994" y2="89.2631" gradientTransform="matrix(1 0 0 -1 0 142)">
		<stop  offset="0" style="stop-color:#C5902C"/>
		<stop  offset="1" style="stop-color:#FFDE77"/>
	</linearGradient>
	<path style="fill:url(#SVGID_2_);" d="M101.7,50.2c2.9,3,4.3,6.8,4.3,11.4c0,3.4-0.9,6.5-2.6,9.3s-4.4,5-7.9,6.7
		C92,79.2,87.7,80,82.7,80c-4.2,0-8.3-0.6-12.2-1.8c-3.9-1.2-7.2-2.9-10-5l4.7-8.5c2.1,1.8,4.7,3.2,7.8,4.2c3.1,1,6.2,1.6,9.5,1.6
		c3.9,0,6.9-0.8,9.1-2.4s3.3-3.8,3.3-6.5c0-2.7-1.1-4.9-3.2-6.4s-5.3-2.3-9.6-2.3h-5.4v-7.5l13.4-15.9H63.4v-9.2h40.1v7.3l-14.3,17
		C94.7,45.3,98.9,47.1,101.7,50.2z"/>
	
		<linearGradient id="SVGID_3_" gradientUnits="userSpaceOnUse" x1="57.5461" y1="93.711" x2="230.0219" y2="90.4567" gradientTransform="matrix(1 0 0 -1 0 142)">
		<stop  offset="0" style="stop-color:#C5902C"/>
		<stop  offset="1" style="stop-color:#FFDE77"/>
	</linearGradient>
	<path style="fill:url(#SVGID_3_);" d="M150.3,45.1c3.1,1.5,5.5,3.6,7.2,6.4c1.7,2.7,2.6,5.9,2.6,9.5c0,3.8-1,7.2-2.9,10.1
		s-4.5,5.1-7.7,6.7c-3.3,1.6-6.9,2.4-10.9,2.4c-8.1,0-14.3-2.5-18.8-7.6c-4.5-5-6.7-12.3-6.7-21.7c0-6.6,1.2-12.3,3.6-17
		s5.8-8.2,10.1-10.7c4.3-2.4,9.4-3.7,15.1-3.7c3,0,5.9,0.3,8.5,1c2.7,0.6,5,1.6,6.9,2.8l-4,8.2c-2.9-1.9-6.6-2.9-11.2-2.9
		c-5.7,0-10.1,1.7-13.3,5.2s-4.8,8.5-4.8,15.1V49c1.7-2,4-3.5,6.6-4.6c2.7-1,5.7-1.6,9.1-1.6C143.8,42.8,147.3,43.6,150.3,45.1z
		 M146.4,68.7c2.1-1.8,3.2-4.2,3.2-7.3c0-3.1-1.1-5.5-3.2-7.3c-2.1-1.8-5-2.7-8.6-2.7c-3.5,0-6.4,1-8.6,2.9
		c-2.2,1.9-3.3,4.3-3.3,7.2s1.1,5.2,3.2,7.1c2.2,1.9,5.1,2.8,9,2.8C141.5,71.5,144.3,70.5,146.4,68.7z"/>
	
		<linearGradient id="SVGID_4_" gradientUnits="userSpaceOnUse" x1="57.565" y1="94.7107" x2="230.0407" y2="91.4564" gradientTransform="matrix(1 0 0 -1 0 142)">
		<stop  offset="0" style="stop-color:#C5902C"/>
		<stop  offset="1" style="stop-color:#FFDE77"/>
	</linearGradient>
	<path style="fill:url(#SVGID_4_);" d="M177.9,76.5c-3.7-2.4-6.6-5.9-8.8-10.4s-3.2-10-3.2-16.3s1.1-11.7,3.2-16.3s5-8,8.8-10.4
		c3.7-2.4,7.9-3.6,12.6-3.6c4.7,0,8.9,1.2,12.7,3.6c3.7,2.4,6.7,5.9,8.8,10.4s3.2,10,3.2,16.3s-1.1,11.7-3.2,16.3s-5.1,8-8.8,10.4
		s-8,3.6-12.7,3.6C185.8,80,181.6,78.8,177.9,76.5z M200.5,65.3c2.4-3.5,3.7-8.7,3.7-15.6s-1.2-12.1-3.7-15.6
		c-2.4-3.5-5.8-5.2-10-5.2s-7.4,1.7-9.9,5.2c-2.4,3.5-3.7,8.7-3.7,15.6s1.2,12.1,3.7,15.6c2.4,3.5,5.7,5.2,9.9,5.2
		S198,68.8,200.5,65.3z"/>
	
		<linearGradient id="SVGID_5_" gradientUnits="userSpaceOnUse" x1="57.8013" y1="107.2369" x2="230.2771" y2="103.9826" gradientTransform="matrix(1 0 0 -1 0 142)">
		<stop  offset="0" style="stop-color:#C5902C"/>
		<stop  offset="1" style="stop-color:#FFDE77"/>
	</linearGradient>
	<path style="fill:url(#SVGID_5_);" d="M227.5,49.8c-2.1-1.1-3.8-2.7-5-4.8c-1.2-2-1.8-4.4-1.8-6.9s0.6-4.9,1.8-6.9s2.9-3.6,5-4.8
		c2.1-1.1,4.5-1.7,7.2-1.7s5.1,0.6,7.2,1.7c2.1,1.1,3.8,2.7,5,4.8c1.2,2,1.8,4.3,1.8,6.9S248,43,246.8,45s-2.9,3.6-5,4.8
		c-2.1,1.1-4.5,1.7-7.2,1.7C232,51.5,229.6,50.9,227.5,49.8z M240.2,44c1.5-1.5,2.2-3.5,2.2-5.9s-0.7-4.4-2.2-5.9s-3.3-2.3-5.6-2.3
		s-4.1,0.8-5.6,2.3s-2.2,3.5-2.2,5.9s0.7,4.4,2.2,5.9s3.3,2.3,5.6,2.3S238.8,45.5,240.2,44z"/>
</g>
</svg>
