<?xml version="1.0" encoding="utf-8"?>
<!-- Generator: Adobe Illustrator 23.0.5, SVG Export Plug-In . SVG Version: 6.00 Build 0)  -->
<svg version="1.1" id="Layer_1" xmlns="http://www.w3.org/2000/svg" xmlns:xlink="http://www.w3.org/1999/xlink" x="0px" y="0px"
	 width="800px" height="400px" viewBox="0 0 800 400" style="enable-background:new 0 0 800 400;" xml:space="preserve">
<style type="text/css">
	.st0{fill:#005571;}
	.st1{fill:#00465A;}
</style>
<path class="st0" d="M704.9,355.3c-71.8,57.3-139.8,44.8-215,11c-64.4-28.9-128.1-76-197.7-75.4c-69.4,0.7-128.1,29.6-191.6-0.1
	c-85.1-39.9-95.8-126.5-64.5-194C79.4,3.3,178.8-11.9,257.1,27.1C322,59.4,387.7,96,482.6,72.7c70.3-17.2,124.1-90,201.1-60.9
	C771.1,44.8,837.7,249.4,704.9,355.3z"/>
<path class="st1" d="M689.5,347.7c-66.9,53.3-130.2,41.8-200.2,10.2c-59.9-27-119.3-70.8-184.1-70.2c-64.7,0.6-119.3,27.6-178.4-0.1
	c-79.2-37.2-89.2-117.8-60.1-180.7C107,19.8,199.6,5.7,272.6,42c60.4,30.1,121.6,64.1,210,42.4c65.5-16,115.6-83.9,187.3-56.7
	C751.2,58.5,813.3,249,689.5,347.7z"/>
</svg>
