<?xml version="1.0" encoding="utf-8"?>
<!-- Generator: Adobe Illustrator 16.0.0, SVG Export Plug-In . SVG Version: 6.00 Build 0)  -->
<!DOCTYPE svg PUBLIC "-//W3C//DTD SVG 1.1//EN" "http://www.w3.org/Graphics/SVG/1.1/DTD/svg11.dtd">
<svg version="1.1" id="compass" xmlns="http://www.w3.org/2000/svg" xmlns:xlink="http://www.w3.org/1999/xlink" x="0px" y="0px"
	 width="80px" height="80px" viewBox="0 0 80 80" enable-background="new 0 0 80 80" xml:space="preserve">
<polygon fill="#F1C56A" points="35.443,16.149 38.699,16.14 38.78,10.261 42.875,16.16 46.205,16.218 46.267,5.314 42.938,5.256 
	42.936,11.343 38.76,5.236 35.505,5.246 "/>
<path fill="#F1C56A" d="M26.043,33.29c8.197-7.954,21.791-7.875,29.88,0.175c8.089,8.05,8.124,21.072-0.146,28.957
	c-8.196,7.955-21.791,7.876-29.879-0.174C17.6,54.279,17.631,41.183,26.043,33.29 M21.072,28.353
	c-5.63,5.286-8.352,12.279-8.455,19.22c-0.104,6.942,2.772,14.028,8.188,19.371c5.414,5.34,12.688,8.048,19.839,8.07l0,0
	c7.151,0.023,14.392-2.576,19.95-7.93c5.488-5.28,8.349-12.279,8.378-19.289l0,0c0.031-7.008-2.773-14.028-8.186-19.37
	C50.03,17.811,32.118,17.72,21.072,28.353z"/>
<path fill="#F1C56A" d="M40.849,42.727c1.984,0.05,3.733,1.103,4.583,2.691L40.97,28.494l-4.537,16.703
	C37.356,43.738,39.006,42.671,40.849,42.727z"/>
<path fill="#F1C56A" d="M40.828,52.992c-1.909,0.019-3.516-1.041-4.503-2.481l4.39,16.857l4.671-16.852
	C44.529,51.9,42.813,53.042,40.828,52.992z"/>
</svg>
