<?xml version="1.0" encoding="utf-8"?>
<!-- Generator: Adobe Illustrator 23.0.5, SVG Export Plug-In . SVG Version: 6.00 Build 0)  -->
<svg version="1.1" id="Layer_1" xmlns="http://www.w3.org/2000/svg" xmlns:xlink="http://www.w3.org/1999/xlink" x="0px" y="0px"
	 width="80px" height="80px" viewBox="0 0 80 80" style="enable-background:new 0 0 80 80;" xml:space="preserve">
<style type="text/css">
	.st0{fill:url(#SVGID_1_);}
	.st1{fill:url(#SVGID_2_);}
	.st2{fill:url(#SVGID_3_);}
</style>
<linearGradient id="SVGID_1_" gradientUnits="userSpaceOnUse" x1="15" y1="22.6471" x2="47.9884" y2="22.6471">
	<stop  offset="0" style="stop-color:#C5902C"/>
	<stop  offset="1" style="stop-color:#FFDE77"/>
</linearGradient>
<path class="st0" d="M60.8,24.9H17.9c-1.3,0-2.3-1-2.3-2.3v0c0-1.3,1-2.3,2.3-2.3h42.8c1.3,0,2.3,1,2.3,2.3v0
	C63.1,23.9,62,24.9,60.8,24.9z"/>
<linearGradient id="SVGID_2_" gradientUnits="userSpaceOnUse" x1="15" y1="39.7941" x2="47.9884" y2="39.7941">
	<stop  offset="0" style="stop-color:#C5902C"/>
	<stop  offset="1" style="stop-color:#FFDE77"/>
</linearGradient>
<path class="st1" d="M60.8,42.1H17.9c-1.3,0-2.3-1-2.3-2.3v0c0-1.3,1-2.3,2.3-2.3h42.8c1.3,0,2.3,1,2.3,2.3v0
	C63.1,41.1,62,42.1,60.8,42.1z"/>
<linearGradient id="SVGID_3_" gradientUnits="userSpaceOnUse" x1="15" y1="56.9412" x2="47.9884" y2="56.9412">
	<stop  offset="0" style="stop-color:#C5902C"/>
	<stop  offset="1" style="stop-color:#FFDE77"/>
</linearGradient>
<path class="st2" d="M60.8,59.2H17.9c-1.3,0-2.3-1-2.3-2.3v0c0-1.3,1-2.3,2.3-2.3h42.8c1.3,0,2.3,1,2.3,2.3v0
	C63.1,58.2,62,59.2,60.8,59.2z"/>
</svg>
