<?xml version="1.0" encoding="utf-8"?>
<!-- Generator: Adobe Illustrator 23.0.5, SVG Export Plug-In . SVG Version: 6.00 Build 0)  -->
<svg version="1.1" id="Layer_1" xmlns="http://www.w3.org/2000/svg" xmlns:xlink="http://www.w3.org/1999/xlink" x="0px" y="0px"
	 width="60px" height="60px" viewBox="0 0 60 60" style="enable-background:new 0 0 60 60;" xml:space="preserve">
<style type="text/css">
	.st0{fill:url(#SVGID_1_);}
	.st1{fill:url(#SVGID_2_);}
</style>
<linearGradient id="SVGID_1_" gradientUnits="userSpaceOnUse" x1="4.736" y1="23.6327" x2="43.0908" y2="23.6327">
	<stop  offset="0" style="stop-color:#C5902C"/>
	<stop  offset="1" style="stop-color:#FFDE77"/>
</linearGradient>
<path class="st0" d="M42.2,34L42.2,34c0,0-4.8-2.6-6.9-4.2c-0.6-0.6-1.9-0.6-2.2-0.6c-1.1,0-1.7,0.8-1.7,0.8l0,0
	c0,0-0.5,0.5-1.2,1.1c-0.9,0.8-2,0.8-3-0.3c-1.4-1.1-8.1-9-10.3-11.5c-0.5-0.6-0.8-1.1-0.8-1.7c0.2-1.1,1.4-1.9,1.9-2.3l0.2-0.2
	c1.4-0.9,1.6-2.5,1.1-3.6c-0.5-0.6-3.1-6.4-3.4-7c-0.6-0.5-1.1-1.2-2.5-1.2c-0.9,0-5,1.7-5,1.7c-1.4,0.9-3.7,2.6-3.6,6.2
	c0.2,4.4,3.6,10.8,10.9,19.5c7.5,9.5,16.2,13.7,20,13.6c3.1-0.2,6.2-4.2,7-6.2C43.6,36,42.9,34.6,42.2,34z"/>
<g>
	<linearGradient id="SVGID_2_" gradientUnits="userSpaceOnUse" x1="4.0972" y1="29.915" x2="57.7948" y2="29.915">
		<stop  offset="0" style="stop-color:#C5902C"/>
		<stop  offset="1" style="stop-color:#FFDE77"/>
	</linearGradient>
	<path class="st1" d="M35.6,3.6C31.7,3,28.1,3.1,24.5,4.1c-1.7,0.5-2.8,2.3-2.2,4.1l0,0c0.2,0.3,0.6,0.6,0.9,0.5
		c3.9-1.4,8.1-1.7,12.6-0.8c9.5,2.2,16.7,10.3,17.6,20c1.2,13.6-9.4,24.9-22.6,24.9c-12.5,0-22.8-10.1-22.8-22.8c0-0.5,0-0.9,0-1.4
		l-0.9-0.9c-1.1-1.1-3-0.5-3.1,1.1C4,32.7,4.6,37,6.8,41.3C11.1,50.2,20,56.4,30,56.6c16.7,0.3,29.6-13.7,27.6-30.2
		C56,14.8,47,5.6,35.6,3.6z"/>
</g>
</svg>
