<?xml version="1.0" encoding="utf-8"?>
<!-- Generator: Adobe Illustrator 16.0.0, SVG Export Plug-In . SVG Version: 6.00 Build 0)  -->
<!DOCTYPE svg PUBLIC "-//W3C//DTD SVG 1.1//EN" "http://www.w3.org/Graphics/SVG/1.1/DTD/svg11.dtd">
<svg version="1.1" id="Capa_1" xmlns="http://www.w3.org/2000/svg" xmlns:xlink="http://www.w3.org/1999/xlink" x="0px" y="0px"
	 width="80px" height="80px" viewBox="0 0 80 80" enable-background="new 0 0 80 80" xml:space="preserve">
<path fill="#00465A" d="M22.4,65.7c-0.7-0.4-1.1-1.101-1.1-1.9V17c0-1.2,1-2.1,2.1-2.1s2.1,1,2.1,2.1v43.1l31.6-18.8L34,26.3
	c-1-0.6-1.3-2-0.6-3c0.6-1,2-1.3,3-0.6l26.2,16.9c0.601,0.4,1,1.1,1,1.8c0,0.699-0.399,1.399-1,1.8l-38,22.5
	C23.9,66.1,23.1,66.1,22.4,65.7z"/>
</svg>
