<?xml version="1.0" encoding="utf-8"?>
<!-- Generator: Adobe Illustrator 23.0.1, SVG Export Plug-In . SVG Version: 6.00 Build 0)  -->
<svg version="1.1" id="Layer_1" xmlns="http://www.w3.org/2000/svg" xmlns:xlink="http://www.w3.org/1999/xlink" x="0px" y="0px"
	 width="420px" height="100px" viewBox="0 0 420 100" style="enable-background:new 0 0 420 100;" xml:space="preserve">
<path style="fill:#F2D066;" d="M85.5,16.1H34.7h-0.1v67.8v0h50.9l17-17V33L85.5,16.1z M51.6,67L51.6,67V33h0.1h33.8h0.1L68.5,50
	l17,17h0H51.6z"/>
<path style="fill:#F2D066;" d="M133.4,33.1c11.6,0,16.8,7.8,16.8,16.6s-5,17.1-16.8,17.1c-4.2,0-9.6,0-13.8,0V33.1H133.4z M127,59.9
	h6.4c7.3,0,9.4-5.4,9.4-10.3s-2.3-9.7-9.4-9.7H127V59.9z"/>
<polygon style="fill:#F2D066;" points="211.8,33.1 211.8,54.5 195.2,33.1 188.8,33.1 188.8,66.9 196.4,66.9 196.4,45.7 212.9,66.9 
	219.3,66.9 219.3,33.1 "/>
<path style="fill:#F2D066;" d="M247.6,66.9V53.6h-15.1v13.4H225V33.2h7.5v13.5h15.1V33.2h7.4v33.8H247.6z"/>
<path style="fill:#F2D066;" d="M324.4,66.9V53.5h-15.1v13.4h-7.5V33.1h7.5v13.5h15.1V33.1h7.4v33.8H324.4z"/>
<path style="fill:#F2D066;" d="M371.4,50c0,11-7.4,17.7-18.2,17.7S335,61,335,50s7.4-17.7,18.2-17.7S371.4,39,371.4,50z M364.1,50
	c0-6.2-4.3-10.9-10.9-10.9c-6.4,0-10.9,4.8-10.9,10.9c0,6.3,4.4,10.9,10.9,10.9C359.8,60.9,364.1,56.3,364.1,50z M352,25.8l-4.8,4.5
	v0.2h4.5l1.5-1.3l1.5,1.3h4.5v-0.2l-4.8-4.5H352z"/>
<path style="fill:#F2D066;" d="M374.7,66.9V33.1h7.5v33.8H374.7z"/>
<polygon style="fill:#F2D066;" points="299.4,33.1 290.8,33.1 279.6,47.3 279.6,33.1 272,33.1 272,66.9 279.6,66.9 279.6,52.7 
	290.8,66.9 299.4,66.9 286,50 "/>
<path style="fill:#F2D066;" d="M172,32.9h-8.1l-15.2,34h8.1l2.6-5.8h17.1l1.6,3.5l1,2.3h0h8.1L172,32.9z M162.4,54.4l5.6-12.5
	l5.6,12.5H162.4z"/>
</svg>
