<svg xmlns="http://www.w3.org/2000/svg" viewBox="0 0 48.97 48.87"><defs><style>.cls-1{fill:#fff;}</style></defs><g id="Layer_2" data-name="Layer 2"><g id="_"><path class="cls-1" d="M43.33,18.94a2.87,2.87,0,1,0-2.87,2.86A2.87,2.87,0,0,0,43.33,18.94Z"/><path class="cls-1" d="M9.6,18.94A2.11,2.11,0,1,0,7.49,21,2.11,2.11,0,0,0,9.6,18.94Z"/><path class="cls-1" d="M32.06,18.94a2.59,2.59,0,1,0-2.59,2.58A2.59,2.59,0,0,0,32.06,18.94Z"/><path class="cls-1" d="M32.06,29.93a2.59,2.59,0,1,0-2.59,2.58A2.59,2.59,0,0,0,32.06,29.93Z"/><path class="cls-1" d="M43.33,29.93a2.87,2.87,0,1,0-2.87,2.86A2.86,2.86,0,0,0,43.33,29.93Z"/><path class="cls-1" d="M9.6,29.93A2.11,2.11,0,1,0,7.49,32,2.11,2.11,0,0,0,9.6,29.93Z"/><path class="cls-1" d="M3.84,25.21A2,2,0,1,0,0,24.43a2,2,0,0,0,.16.78,2,2,0,0,0,.43.64,2,2,0,0,0,2.82,0A2.12,2.12,0,0,0,3.84,25.21Z"/><path class="cls-1" d="M14.83,25.67a2.28,2.28,0,0,0,.2-.38,2.2,2.2,0,0,0,.17-.86,2.29,2.29,0,0,0-.37-1.24,2.24,2.24,0,0,0-1.84-1,2.28,2.28,0,0,0-.45,0,2.24,2.24,0,0,0-1.12.61,2.69,2.69,0,0,0-.27.32,2.26,2.26,0,0,0-.33.8,2.12,2.12,0,0,0-.05.44,2.22,2.22,0,0,0,.05.45,2,2,0,0,0,.13.41,2.28,2.28,0,0,0,.2.38,2.16,2.16,0,0,0,.27.33,2.23,2.23,0,0,0,1.12.6,2.3,2.3,0,0,0,.45,0A2.22,2.22,0,0,0,14.56,26,2.16,2.16,0,0,0,14.83,25.67Z"/><path class="cls-1" d="M37.22,26a2.59,2.59,0,0,0,.26-.46,2.86,2.86,0,0,0,.21-1.06A2.73,2.73,0,0,0,35,21.71a2.51,2.51,0,0,0-.55.06,2.71,2.71,0,0,0-1.37.74,2.06,2.06,0,0,0-.33.4,2.61,2.61,0,0,0-.41,1,2.55,2.55,0,0,0,0,1.1,2.74,2.74,0,0,0,.15.51,2.59,2.59,0,0,0,.26.46,1.8,1.8,0,0,0,.33.4,2.72,2.72,0,0,0,1.37.75,3.31,3.31,0,0,0,.55,0,2.67,2.67,0,0,0,1.92-.8A1.8,1.8,0,0,0,37.22,26Z"/><path class="cls-1" d="M48.74,25.6a3,3,0,1,0-5.56,0,3.07,3.07,0,0,0,.65,1,3,3,0,0,0,4.26,0A3.07,3.07,0,0,0,48.74,25.6Z"/><path class="cls-1" d="M26.38,3a2.07,2.07,0,0,0,.05-.5,2.46,2.46,0,0,0-4.91,0,2.73,2.73,0,0,0,.05.5,2.46,2.46,0,0,0,4.81,0Z"/><path class="cls-1" d="M14.83,3.69a2.14,2.14,0,0,0,.37-1.24A2.2,2.2,0,0,0,13,.24a2.28,2.28,0,0,0-.45,0,2.24,2.24,0,0,0-1.12.61A2.22,2.22,0,0,0,10.82,2a2.12,2.12,0,0,0-.05.44,2.14,2.14,0,0,0,.05.45A2.22,2.22,0,0,0,11.42,4a2.23,2.23,0,0,0,1.12.6,2.3,2.3,0,0,0,.45,0A2.23,2.23,0,0,0,14.83,3.69Z"/><path class="cls-1" d="M37.22,15a2.63,2.63,0,0,0,.47-1.52A2.72,2.72,0,0,0,35,10.73a2.5,2.5,0,0,0-.55,0,2.71,2.71,0,0,0-1.37.74,2.06,2.06,0,0,0-.33.4,2.59,2.59,0,0,0-.41,1,2.42,2.42,0,0,0-.06.54,2.51,2.51,0,0,0,.06.55,2.61,2.61,0,0,0,.41,1,2.12,2.12,0,0,0,.33.41,2.79,2.79,0,0,0,1.37.74,3.31,3.31,0,0,0,.55.05A2.68,2.68,0,0,0,37.22,15Z"/><path class="cls-1" d="M4,13.44a2,2,0,1,0-2,2A2,2,0,0,0,4,13.44Z"/><path class="cls-1" d="M26.43,13.44A2.46,2.46,0,1,0,24,15.9,2.45,2.45,0,0,0,26.43,13.44Z"/><path class="cls-1" d="M20.82,8a2.34,2.34,0,1,0-2.34,2.33A2.33,2.33,0,0,0,20.82,8Z"/><path class="cls-1" d="M32.06,8a2.59,2.59,0,1,0-2.59,2.58A2.58,2.58,0,0,0,32.06,8Z"/><path class="cls-1" d="M26.43,35.42A2.46,2.46,0,1,0,24,37.88,2.45,2.45,0,0,0,26.43,35.42Z"/><path class="cls-1" d="M37.22,36.94a2.69,2.69,0,0,0,0-3A2.7,2.7,0,0,0,35,32.7a2.51,2.51,0,0,0-.55.06,2.71,2.71,0,0,0-1.37.74,2.06,2.06,0,0,0-.33.4,2.61,2.61,0,0,0-.41,1,2.55,2.55,0,0,0,0,1.1,2.61,2.61,0,0,0,.41,1,1.8,1.8,0,0,0,.33.4,2.72,2.72,0,0,0,1.37.75,3.31,3.31,0,0,0,.55,0A2.68,2.68,0,0,0,37.22,36.94Z"/><path class="cls-1" d="M4,35.42a2,2,0,1,0-2,2A2,2,0,0,0,4,35.42Z"/><path class="cls-1" d="M26.24,47.37a2.38,2.38,0,0,0,.19-1,2.46,2.46,0,0,0-4.91,0,2.39,2.39,0,0,0,.2,1,2.54,2.54,0,0,0,.52.78,2.46,2.46,0,0,0,3.48,0A2.54,2.54,0,0,0,26.24,47.37Z"/><path class="cls-1" d="M14.83,47.65a2.28,2.28,0,0,0,.2-.38,2.2,2.2,0,0,0,.17-.86,2.29,2.29,0,0,0-.37-1.24,2.22,2.22,0,0,0-1.84-1,2.28,2.28,0,0,0-.45,0,2.24,2.24,0,0,0-1.12.61,2.69,2.69,0,0,0-.27.32,2.26,2.26,0,0,0-.33.8,2.12,2.12,0,0,0-.05.44,2.3,2.3,0,0,0,.05.45,2,2,0,0,0,.13.41,2.28,2.28,0,0,0,.2.38,2.16,2.16,0,0,0,.27.33,2.23,2.23,0,0,0,1.12.6,2.3,2.3,0,0,0,.45.05A2.22,2.22,0,0,0,14.56,48,2.16,2.16,0,0,0,14.83,47.65Z"/><path class="cls-1" d="M20.82,40.92a2.34,2.34,0,1,0-2.34,2.33A2.34,2.34,0,0,0,20.82,40.92Z"/><path class="cls-1" d="M32.06,40.92a2.59,2.59,0,1,0-2.59,2.58A2.59,2.59,0,0,0,32.06,40.92Z"/></g></g></svg>