<svg xmlns="http://www.w3.org/2000/svg" xmlns:xlink="http://www.w3.org/1999/xlink" width="249.257" height="94.812" viewBox="0 0 249.257 94.812">
  <defs>
    <linearGradient id="linear-gradient" x1="-0.015" y1="0.5" x2="1.844" y2="0.5" gradientUnits="objectBoundingBox">
      <stop offset="0" stop-color="#ffd467"/>
      <stop offset="0.143" stop-color="#f5c862"/>
      <stop offset="0.395" stop-color="#daab55"/>
      <stop offset="0.724" stop-color="#af7b40"/>
      <stop offset="0.999" stop-color="#874e2d"/>
    </linearGradient>
    <linearGradient id="linear-gradient-2" x1="-0.453" y1="-0.026" x2="4.289" y2="2.63" gradientUnits="objectBoundingBox">
      <stop offset="0" stop-color="#ffd467"/>
      <stop offset="0.999" stop-color="#874e2d"/>
    </linearGradient>
    <linearGradient id="linear-gradient-3" x1="-0.686" y1="-0.13" x2="4.378" y2="2.536" xlink:href="#linear-gradient-2"/>
    <linearGradient id="linear-gradient-4" x1="-0.617" y1="-0.095" x2="4.446" y2="2.604" xlink:href="#linear-gradient-2"/>
    <linearGradient id="linear-gradient-5" x1="-2.367" y1="-1.956" x2="4.636" y2="4.044" xlink:href="#linear-gradient-2"/>
    <linearGradient id="linear-gradient-6" x1="-25.768" y1="-0.745" x2="31.193" y2="1.955" xlink:href="#linear-gradient-2"/>
    <linearGradient id="linear-gradient-7" x1="-1.909" y1="-1.649" x2="5.094" y2="4.599" xlink:href="#linear-gradient-2"/>
    <linearGradient id="linear-gradient-8" x1="-1.62" y1="-1.626" x2="3.607" y2="3.617" xlink:href="#linear-gradient-2"/>
    <linearGradient id="linear-gradient-9" x1="-1.321" y1="-1.352" x2="3.906" y2="3.963" xlink:href="#linear-gradient-2"/>
  </defs>
  <g id="Group_10" data-name="Group 10" transform="translate(-21.43 -8.152)">
    <path id="Path_1" data-name="Path 1" d="M34.887,86.282a4.373,4.373,0,0,1,.408,2.23V98.68L25.451,85.147H21.43v.5a2.432,2.432,0,0,1,1.783.853,4,4,0,0,1,.542,2.366V99.048a4.8,4.8,0,0,1-.4,2.322,1.653,1.653,0,0,1-1.537.66v.5h4.755v-.5a1.976,1.976,0,0,1-1.582-.556,2.849,2.849,0,0,1-.475-1.847V87.416l11.1,15.118h.48V88.394a3.783,3.783,0,0,1,.441-2.149,1.843,1.843,0,0,1,1.576-.593v-.5H33.385v.5A1.652,1.652,0,0,1,34.887,86.282Zm17.284,15.147a1.482,1.482,0,0,1-1.4.6v.5h5.609v-.5a1.526,1.526,0,0,1-1.389-.6,4.279,4.279,0,0,1-.387-2.159V88.426A4.313,4.313,0,0,1,55,86.261a1.515,1.515,0,0,1,1.389-.609v-.5H50.776v.5a1.5,1.5,0,0,1,1.382.585,4.509,4.509,0,0,1,.367,2.186v4.951H43.99V88.423a4.258,4.258,0,0,1,.394-2.141,1.543,1.543,0,0,1,1.423-.63v-.5H40.143v.5a1.538,1.538,0,0,1,1.4.586,4.361,4.361,0,0,1,.381,2.188V99.271a4.433,4.433,0,0,1-.374,2.144,1.507,1.507,0,0,1-1.4.615v.5h5.664v-.5a1.564,1.564,0,0,1-1.423-.609,4.217,4.217,0,0,1-.394-2.153v-5.05h8.535v5.05A4.627,4.627,0,0,1,52.171,101.429Zm9.263-1.133a7.925,7.925,0,0,0,11.861,0,9.351,9.351,0,0,0,2.432-6.536,9.136,9.136,0,0,0-2.411-6.418,7.7,7.7,0,0,0-5.9-2.624,7.85,7.85,0,0,0-6,2.586,9.119,9.119,0,0,0-2.405,6.456A9.385,9.385,0,0,0,61.434,100.3ZM63.07,87.682a5.159,5.159,0,0,1,4.4-2.3,4.947,4.947,0,0,1,4.221,2.334,10.607,10.607,0,0,1,1.63,6.189,10.268,10.268,0,0,1-1.663,5.987,5.061,5.061,0,0,1-4.334,2.4,4.983,4.983,0,0,1-4.274-2.349,10.591,10.591,0,0,1-1.63-6.159A10.256,10.256,0,0,1,63.07,87.682Zm28.251-1.4a4.386,4.386,0,0,1,.407,2.23V98.68L81.884,85.147h-4.02v.5a2.431,2.431,0,0,1,1.782.853,4,4,0,0,1,.542,2.366V99.048a4.8,4.8,0,0,1-.4,2.322,1.651,1.651,0,0,1-1.536.66v.5H83v-.5a1.979,1.979,0,0,1-1.582-.556,2.85,2.85,0,0,1-.474-1.847V87.416l11.1,15.118h.479V88.394a3.781,3.781,0,0,1,.442-2.149,1.843,1.843,0,0,1,1.576-.593v-.5H89.818v.5A1.655,1.655,0,0,1,91.321,86.282Zm23.441,15.147a1.481,1.481,0,0,1-1.4.6v.5h5.609v-.5a1.524,1.524,0,0,1-1.388-.6,4.266,4.266,0,0,1-.388-2.159V88.426a4.3,4.3,0,0,1,.388-2.165,1.513,1.513,0,0,1,1.388-.609v-.5h-5.609v.5a1.5,1.5,0,0,1,1.382.585,4.506,4.506,0,0,1,.368,2.186v4.951h-8.536V88.423a4.258,4.258,0,0,1,.394-2.141,1.544,1.544,0,0,1,1.423-.63v-.5h-5.664v.5a1.538,1.538,0,0,1,1.4.586,4.361,4.361,0,0,1,.381,2.188V99.271a4.421,4.421,0,0,1-.374,2.144,1.507,1.507,0,0,1-1.4.615v.5H108.4v-.5a1.565,1.565,0,0,1-1.423-.609,4.217,4.217,0,0,1-.394-2.153v-5.05h8.536v5.05A4.624,4.624,0,0,1,114.762,101.429Zm9.263-1.133a7.926,7.926,0,0,0,11.862,0,9.354,9.354,0,0,0,2.431-6.536,9.136,9.136,0,0,0-2.411-6.418,7.7,7.7,0,0,0-5.9-2.624,7.851,7.851,0,0,0-6,2.586,9.119,9.119,0,0,0-2.4,6.456A9.385,9.385,0,0,0,124.025,100.3Zm1.636-12.614a5.16,5.16,0,0,1,4.4-2.3,4.947,4.947,0,0,1,4.22,2.334,10.607,10.607,0,0,1,1.63,6.189,10.26,10.26,0,0,1-1.663,5.987,5.061,5.061,0,0,1-4.334,2.4,4.984,4.984,0,0,1-4.274-2.349,10.591,10.591,0,0,1-1.63-6.159A10.263,10.263,0,0,1,125.661,87.682Zm15.007-2.535v.5a1.536,1.536,0,0,1,1.41.586,4.516,4.516,0,0,1,.366,2.188V99.271a4.4,4.4,0,0,1-.373,2.165,1.529,1.529,0,0,1-1.4.594v.5H146.3v-.5a1.525,1.525,0,0,1-1.389-.6,4.266,4.266,0,0,1-.388-2.159V88.426a4.3,4.3,0,0,1,.388-2.165,1.514,1.514,0,0,1,1.389-.609v-.5Zm26.508,1.135a4.373,4.373,0,0,1,.408,2.23V98.68L157.74,85.147h-4.021v.5a2.432,2.432,0,0,1,1.783.853,4,4,0,0,1,.541,2.366V99.048a4.8,4.8,0,0,1-.4,2.322,1.65,1.65,0,0,1-1.536.66v.5h4.755v-.5a1.976,1.976,0,0,1-1.582-.556,2.843,2.843,0,0,1-.475-1.847V87.416l11.1,15.118h.479V88.394a3.781,3.781,0,0,1,.442-2.149,1.843,1.843,0,0,1,1.576-.593v-.5h-4.728v.5A1.654,1.654,0,0,1,167.176,86.282Zm14.653,6.8a1.64,1.64,0,0,1-1.223.355h-4.381v-7.44h4.515a3.119,3.119,0,0,1,1.943.407,3.07,3.07,0,0,1,.688,1.653h.294V85.147H172.378v.5a1.527,1.527,0,0,1,1.4.593,4.446,4.446,0,0,1,.374,2.181V99.3a4.455,4.455,0,0,1-.361,2.13,1.516,1.516,0,0,1-1.416.6v.5h11.287l.721-3.246h-.467a6.524,6.524,0,0,1-.829,1.564,1.951,1.951,0,0,1-.948.659,7.723,7.723,0,0,1-2.03.178h-2.738a1.213,1.213,0,0,1-.888-.266,1.3,1.3,0,0,1-.261-.92V94.279h3.887a2.885,2.885,0,0,1,1.576.281,2.586,2.586,0,0,1,.614,1.393h.468V91.729H182.3A2.651,2.651,0,0,1,181.829,93.078Zm23.328-7.931v.475a1.361,1.361,0,0,1,1.565,1.513,6.424,6.424,0,0,1-.387,1.928L203.12,98.8l-3.664-11.011a3.746,3.746,0,0,1-.213-1.1q0-1.038,1.519-1.038v-.5h-5.729v.5a1.993,1.993,0,0,1,1.372.429,3.34,3.34,0,0,1,.812,1.483l.347,1.126L194.238,98.8l-3.672-11.045a3.208,3.208,0,0,1-.2-.977q0-.948,1.38-1.125v-.5h-5.81v.5a2.592,2.592,0,0,1,1.27.222,2.085,2.085,0,0,1,.675.793,11.641,11.641,0,0,1,.715,1.756l4.784,14.349h.447l4.151-12.835,4.271,12.835h.487l4.409-13.592a9.069,9.069,0,0,1,1.229-2.676,2.115,2.115,0,0,1,1.538-.852v-.5Zm26.46-.251a.849.849,0,0,1-.841.548,6.668,6.668,0,0,1-1.4-.267,12.563,12.563,0,0,0-2.978-.459,7.265,7.265,0,0,0-5.8,2.72,10.271,10.271,0,0,0-2.3,6.87,9.845,9.845,0,0,0,.982,4.484,7.5,7.5,0,0,0,6.725,4.172,6.9,6.9,0,0,0,4-1.208,6.817,6.817,0,0,0,2.544-3.283l-.414-.43q-1.763,3.825-5.463,3.824a5.042,5.042,0,0,1-4.322-2.379,10.813,10.813,0,0,1-1.648-6.277,9.426,9.426,0,0,1,1.562-5.692,4.977,4.977,0,0,1,4.234-2.134,4.656,4.656,0,0,1,3.292,1.141,6.829,6.829,0,0,1,1.8,3.557h.468V84.9Zm2.578.251v.5a1.534,1.534,0,0,1,1.409.586,4.513,4.513,0,0,1,.367,2.188V99.271a4.393,4.393,0,0,1-.374,2.165,1.527,1.527,0,0,1-1.4.594v.5h5.636v-.5a1.524,1.524,0,0,1-1.388-.6,4.253,4.253,0,0,1-.389-2.159V88.426a4.287,4.287,0,0,1,.389-2.165,1.513,1.513,0,0,1,1.388-.609v-.5ZM253.9,86.519a3.018,3.018,0,0,1,1.049,1.963h.307V84.5h-.494a3.679,3.679,0,0,1-2.485.651h-8.214a3.251,3.251,0,0,1-2.351-.651h-.468v3.986h.468a2.514,2.514,0,0,1,.835-1.911,3.867,3.867,0,0,1,2.371-.578h2.27V99.271a4.439,4.439,0,0,1-.371,2.128,1.49,1.49,0,0,1-1.405.631v.5h5.543v-.5a1.476,1.476,0,0,1-1.35-.549,4.4,4.4,0,0,1-.346-2.121V85.993h2.377A3.971,3.971,0,0,1,253.9,86.519Zm15.442-.445a2.442,2.442,0,0,1,1.342-.422v-.5h-4.3v.5q1.038,0,1.037.963a3.577,3.577,0,0,1-.547,1.672l-2.481,4.365-3.1-5.267a1.938,1.938,0,0,1-.32-.918q0-.816,1.615-.815v-.5h-6.131v.5a2.34,2.34,0,0,1,1.443.489,7.824,7.824,0,0,1,1.349,1.883l3.339,5.765v5.479a4.34,4.34,0,0,1-.381,2.138,1.665,1.665,0,0,1-1.542.624v.5h5.717v-.5a1.472,1.472,0,0,1-1.356-.586,4.469,4.469,0,0,1-.367-2.176V93.789l3.526-6.166A5.54,5.54,0,0,1,269.345,86.074Z" fill="url(#linear-gradient)"/>
    <g id="Group_9" data-name="Group 9">
      <g id="Group_1" data-name="Group 1">
        <path id="Path_2" data-name="Path 2" d="M86.814,73.215H81.956l3.4-1.457V8.152l48.792,40.219V9.2h1.458V51.462L86.814,11.243Z" fill="url(#linear-gradient-2)"/>
      </g>
      <g id="Group_2" data-name="Group 2">
        <path id="Path_3" data-name="Path 3" d="M146.248,9.2H144.79V70.93L96,30.869V73.215h1.458V33.953l48.792,40.06Z" fill="url(#linear-gradient-3)"/>
      </g>
      <g id="Group_3" data-name="Group 3">
        <path id="Path_4" data-name="Path 4" d="M92.408,22.193,141.2,62.412V9.2h-1.458V59.321L90.949,19.1V73.215h1.458Z" fill="url(#linear-gradient-4)"/>
      </g>
      <g id="Group_4" data-name="Group 4">
        <path id="Path_5" data-name="Path 5" d="M157.585,45.877H191V72.486h1.458V44.42H156.126v28.8h1.458Z" fill="url(#linear-gradient-5)"/>
      </g>
      <g id="Group_5" data-name="Group 5">
        <path id="Path_6" data-name="Path 6" d="M204.74,71.758v-61.1L207.749,9.2h-4.467V73.215h4.467Z" fill="url(#linear-gradient-6)"/>
      </g>
      <g id="Group_6" data-name="Group 6">
        <path id="Path_7" data-name="Path 7" d="M192.461,9.2H191V35.4H157.585V9.2h-1.458V36.855h36.334Z" fill="url(#linear-gradient-7)"/>
      </g>
      <g id="Group_7" data-name="Group 7">
        <path id="Path_8" data-name="Path 8" d="M151.411,41.715h45.765V72.486h1.458V40.258H149.953V73.215h1.458Z" fill="url(#linear-gradient-8)"/>
      </g>
      <g id="Group_8" data-name="Group 8">
        <path id="Path_9" data-name="Path 9" d="M198.634,9.2h-1.458V40.258H151.411V9.2h-1.458V41.715h48.682Z" fill="url(#linear-gradient-9)"/>
      </g>
    </g>
  </g>
</svg>
